<svg id="Layer_1" enable-background="new 0 0 512 512" height="512" viewBox="0 0 512 512" width="512" xmlns="http://www.w3.org/2000/svg"><g><path d="m256 426.753c216.101 0 239.728-109.028 239.728-109.028 3.446-16.367 5.271-33.331 5.271-50.723 0-135.309-109.689-244.998-244.998-244.998s-244.999 109.689-244.999 244.998c0 17.399 1.826 34.369 5.275 50.742.381 1.696 25.33 109.009 239.723 109.009z" fill="#ffa219"/><path d="m19.385 326.657c11.153 26.046 58.519 100.096 236.615 100.096 178.099 0 225.463-74.051 236.615-100.096z" fill="#ff9100"/><path d="m260.185.877c-2.672-1.169-5.698-1.169-8.37 0l-233.84 102.29h476.05z" fill="#e9efff"/><path d="m245.301 103.167v-1.73c-32.007-12.736-28.367-40.448-24.633-53.326 1.029-3.549-.257-7.405-3.314-9.482-6.416-4.36-6.696-11.196-5.97-15.792.223-1.411.089-2.82-.333-4.129l-193.076 84.459z" fill="#dae2fe"/><path d="m251.815 28.726-170.175 74.441h348.72l-170.175-74.441c-2.672-1.169-5.698-1.169-8.37 0z" fill="#dae2fe"/><path d="m245.301 103.167v-1.73c-32.007-12.736-28.367-40.448-24.633-53.326.551-1.902.419-3.883-.275-5.64l-138.753 60.696z" fill="#bec8f7"/><path d="m52.674 244.471h-26.63c-1.818 0-3.517-.538-4.946-1.464l-4.826 74.717c4.435 21.067 11.574 41.135 21.042 59.827h28.997l-8.691-134.545c-1.429.926-3.127 1.465-4.946 1.465z" fill="#e9efff"/><g><path d="m39.36 340.702c-7.693 0-14.628-3.229-19.539-8.398 4.352 15.777 10.235 30.918 17.493 45.248h28.997l-3.287-50.894c-4.574 8.367-13.456 14.044-23.664 14.044z" fill="#dae2fe"/></g><path d="m144.277 243.006c-1.429.926-3.128 1.464-4.946 1.464h-26.63c-1.818 0-3.517-.538-4.946-1.464l-8.691 134.544h53.903z" fill="#e9efff"/><g><path d="m126.016 340.702c-10.208 0-19.09-5.676-23.664-14.045l-3.287 50.894h53.903l-3.288-50.894c-4.574 8.368-13.456 14.045-23.664 14.045z" fill="#dae2fe"/></g><path d="m230.933 243.006c-1.429.926-3.128 1.464-4.946 1.464h-26.63c-1.818 0-3.517-.538-4.946-1.464l-8.691 134.544h53.903z" fill="#e9efff"/><g><path d="m212.672 340.702c-10.209 0-19.09-5.676-23.664-14.045l-3.288 50.894h53.903l-3.288-50.894c-4.573 8.368-13.455 14.045-23.663 14.045z" fill="#dae2fe"/></g><path d="m317.589 243.006c-1.429.926-3.128 1.464-4.946 1.464h-26.63c-1.818 0-3.517-.538-4.946-1.464l-8.691 134.544h53.903z" fill="#e9efff"/><g><path d="m299.328 340.702c-10.209 0-19.09-5.676-23.664-14.045l-3.288 50.894h53.903l-3.287-50.894c-4.574 8.368-13.455 14.045-23.664 14.045z" fill="#dae2fe"/></g><path d="m404.245 243.006c-1.429.926-3.128 1.464-4.946 1.464h-26.63c-1.818 0-3.517-.538-4.946-1.464l-8.691 134.544h53.903z" fill="#e9efff"/><g><path d="m385.984 340.702c-10.208 0-19.09-5.676-23.664-14.045l-3.288 50.894h53.903l-3.288-50.894c-4.573 8.368-13.454 14.045-23.663 14.045z" fill="#dae2fe"/></g><path d="m490.901 243.006c-1.429.926-3.128 1.464-4.946 1.464h-26.63c-1.818 0-3.517-.538-4.946-1.464l-8.691 134.544h28.997c9.467-18.691 16.606-38.76 21.042-59.826z" fill="#e9efff"/><g><path d="m472.64 340.702c-10.208 0-19.09-5.677-23.664-14.045l-3.288 50.894h28.998c7.258-14.33 13.142-29.471 17.494-45.248-4.911 5.17-11.847 8.399-19.54 8.399z" fill="#dae2fe"/></g><g><path d="m56.383 224.928h-34.047c-2.338 0-4.513-.68-6.357-1.837l.989 15.084c.39 4.724 4.337 8.359 9.077 8.359h26.63c4.74 0 8.687-3.635 9.077-8.359l.988-15.083c-1.844 1.156-4.019 1.836-6.357 1.836z" fill="#bec8f7"/></g><g><path d="m143.039 224.928h-34.046c-2.338 0-4.513-.68-6.357-1.837l.989 15.084c.39 4.724 4.337 8.359 9.077 8.359h26.63c4.74 0 8.687-3.635 9.077-8.359l.988-15.083c-1.845 1.156-4.02 1.836-6.358 1.836z" fill="#bec8f7"/></g><g><path d="m229.695 224.928h-34.046c-2.338 0-4.513-.68-6.357-1.837l.988 15.084c.39 4.724 4.337 8.359 9.077 8.359h26.63c4.74 0 8.687-3.635 9.077-8.359l.988-15.083c-1.844 1.156-4.019 1.836-6.357 1.836z" fill="#bec8f7"/></g><g><path d="m316.351 224.928h-34.046c-2.338 0-4.513-.68-6.357-1.837l.988 15.084c.39 4.724 4.337 8.359 9.077 8.359h26.63c4.74 0 8.687-3.635 9.077-8.359l.988-15.083c-1.844 1.156-4.019 1.836-6.357 1.836z" fill="#bec8f7"/></g><g><path d="m403.007 224.928h-34.046c-2.338 0-4.513-.68-6.357-1.837l.988 15.084c.39 4.724 4.337 8.359 9.077 8.359h26.63c4.74 0 8.687-3.635 9.077-8.359l.988-15.083c-1.844 1.156-4.019 1.836-6.357 1.836z" fill="#bec8f7"/></g><g><path d="m489.663 224.928h-34.046c-2.338 0-4.513-.68-6.357-1.837l.988 15.084c.39 4.724 4.337 8.359 9.077 8.359h26.63c4.74 0 8.687-3.635 9.077-8.359l.988-15.083c-1.844 1.156-4.019 1.836-6.357 1.836z" fill="#bec8f7"/></g><g><path d="m40.348 238.175-.868-13.247h-17.143c-2.338 0-4.513-.68-6.358-1.837l.989 15.084c.39 4.724 4.337 8.359 9.077 8.359h23.38c-4.74 0-8.687-3.635-9.077-8.359z" fill="#abbaef"/></g><g><path d="m127.004 238.175-.868-13.247h-17.144c-2.338 0-4.513-.68-6.357-1.837l.988 15.084c.39 4.724 4.337 8.359 9.077 8.359h23.38c-4.739 0-8.686-3.635-9.076-8.359z" fill="#abbaef"/></g><g><path d="m213.66 238.175-.868-13.247h-17.144c-2.338 0-4.513-.68-6.357-1.837l.988 15.084c.39 4.724 4.337 8.359 9.077 8.359h23.38c-4.738 0-8.686-3.635-9.076-8.359z" fill="#abbaef"/></g><g><path d="m300.316 238.175-.868-13.247h-17.144c-2.338 0-4.513-.68-6.357-1.837l.989 15.084c.39 4.724 4.337 8.359 9.077 8.359h23.38c-4.739 0-8.687-3.635-9.077-8.359z" fill="#abbaef"/></g><g><path d="m386.973 238.175-.868-13.247h-17.144c-2.338 0-4.513-.68-6.357-1.837l.989 15.084c.39 4.724 4.337 8.359 9.077 8.359h23.381c-4.741 0-8.689-3.635-9.078-8.359z" fill="#abbaef"/></g><g><path d="m473.629 238.175-.868-13.247h-17.144c-2.338 0-4.513-.68-6.357-1.837l.988 15.084c.39 4.724 4.337 8.359 9.077 8.359h23.38c-4.739 0-8.686-3.635-9.076-8.359z" fill="#abbaef"/></g><path d="m60.068 414.102h391.864c9.065-12.055 17.033-24.978 23.779-38.614h-439.422c6.746 13.636 14.714 26.559 23.779 38.614z" fill="#bec8f7"/><path d="m138.814 405.878c-9.314-13.519.391-30.39 15.461-30.39h-117.986c6.746 13.636 14.714 26.559 23.779 38.614h94.465c-6.27 0-12.162-3.061-15.719-8.224z" fill="#abbaef"/><path d="m8.429 123.139h495.141v46.003h-495.141z" fill="#dae2fe"/><g><path d="m16.222 173.163c-4.274 0-7.737-3.464-7.737-7.737v-39.717c0-4.274 3.464-7.737 7.737-7.737 4.274 0 7.737 3.464 7.737 7.737v39.717c0 4.274-3.464 7.737-7.737 7.737z" fill="#abbaef"/></g><g><path d="m53.112 173.163c-4.274 0-7.737-3.464-7.737-7.737v-39.717c0-4.274 3.464-7.737 7.737-7.737 4.274 0 7.737 3.464 7.737 7.737v39.717c.001 4.274-3.463 7.737-7.737 7.737z" fill="#abbaef"/></g><g><path d="m90.003 173.163c-4.274 0-7.737-3.464-7.737-7.737v-39.717c0-4.274 3.464-7.737 7.737-7.737s7.737 3.464 7.737 7.737v39.717c0 4.274-3.464 7.737-7.737 7.737z" fill="#abbaef"/></g><g><path d="m126.893 173.163c-4.274 0-7.737-3.464-7.737-7.737v-39.717c0-4.274 3.464-7.737 7.737-7.737 4.274 0 7.737 3.464 7.737 7.737v39.717c.001 4.274-3.463 7.737-7.737 7.737z" fill="#abbaef"/></g><g><path d="m163.783 173.163c-4.274 0-7.737-3.464-7.737-7.737v-39.717c0-4.274 3.464-7.737 7.737-7.737s7.737 3.464 7.737 7.737v39.717c0 4.274-3.464 7.737-7.737 7.737z" fill="#bec8f7"/></g><g><path d="m200.673 173.163c-4.274 0-7.737-3.464-7.737-7.737v-39.717c0-4.274 3.464-7.737 7.737-7.737s7.737 3.464 7.737 7.737v39.717c.001 4.274-3.463 7.737-7.737 7.737z" fill="#bec8f7"/></g><g><path d="m237.564 173.163c-4.274 0-7.737-3.464-7.737-7.737v-39.717c0-4.274 3.464-7.737 7.737-7.737s7.737 3.464 7.737 7.737v39.717c0 4.274-3.464 7.737-7.737 7.737z" fill="#bec8f7"/></g><g><path d="m274.454 173.163c-4.274 0-7.737-3.464-7.737-7.737v-39.717c0-4.274 3.464-7.737 7.737-7.737s7.737 3.464 7.737 7.737v39.717c0 4.274-3.463 7.737-7.737 7.737z" fill="#bec8f7"/></g><g><path d="m311.345 173.163c-4.274 0-7.737-3.464-7.737-7.737v-39.717c0-4.274 3.464-7.737 7.737-7.737s7.737 3.464 7.737 7.737v39.717c0 4.274-3.464 7.737-7.737 7.737z" fill="#bec8f7"/></g><g><path d="m348.235 173.163c-4.274 0-7.737-3.464-7.737-7.737v-39.717c0-4.274 3.464-7.737 7.737-7.737s7.737 3.464 7.737 7.737v39.717c.001 4.274-3.463 7.737-7.737 7.737z" fill="#bec8f7"/></g><g><path d="m385.125 173.163c-4.274 0-7.737-3.464-7.737-7.737v-39.717c0-4.274 3.464-7.737 7.737-7.737s7.737 3.464 7.737 7.737v39.717c0 4.274-3.464 7.737-7.737 7.737z" fill="#bec8f7"/></g><g><path d="m422.015 173.163c-4.274 0-7.737-3.464-7.737-7.737v-39.717c0-4.274 3.464-7.737 7.737-7.737s7.737 3.464 7.737 7.737v39.717c.001 4.274-3.463 7.737-7.737 7.737z" fill="#bec8f7"/></g><g><path d="m458.906 173.163c-4.274 0-7.737-3.464-7.737-7.737v-39.717c0-4.274 3.464-7.737 7.737-7.737s7.737 3.464 7.737 7.737v39.717c0 4.274-3.463 7.737-7.737 7.737z" fill="#bec8f7"/></g><g><path d="m495.796 173.163c-4.274 0-7.737-3.464-7.737-7.737v-39.717c0-4.274 3.464-7.737 7.737-7.737 4.274 0 7.737 3.464 7.737 7.737v39.717c.001 4.274-3.463 7.737-7.737 7.737z" fill="#bec8f7"/></g><path d="m452.704 413.07h-393.407c7.214 9.698 15.124 18.847 23.663 27.367h346.08c8.539-8.52 16.45-17.669 23.664-27.367z" fill="#dae2fe"/><path d="m150.17 413.07h-90.874c7.214 9.698 15.124 18.847 23.663 27.367h67.46c-3.705 0-7.252-1.513-9.811-4.191-8.735-9.142-2.136-23.176 9.562-23.176z" fill="#bec8f7"/><path d="m56.383 204.04h-34.046c-6.623 0-11.992 5.369-11.992 11.992s5.369 11.992 11.992 11.992h34.046c6.623 0 11.992-5.369 11.992-11.992-.001-6.624-5.369-11.992-11.992-11.992z" fill="#e9efff"/><path d="m37.296 216.031c0-6.623 5.369-11.992 11.992-11.992h-26.951c-6.623 0-11.992 5.369-11.992 11.992s5.369 11.992 11.992 11.992h26.952c-6.624 0-11.993-5.369-11.993-11.992z" fill="#dae2fe"/><path d="m503.57 165.426h-495.141c-2.859 0-5.176 2.318-5.176 5.177v28.261c0 2.859 2.318 5.177 5.176 5.177h495.141c2.859 0 5.177-2.318 5.177-5.177v-28.261c0-2.86-2.318-5.177-5.177-5.177z" fill="#e9efff"/><path d="m503.57 101.436h-495.141c-2.859 0-5.176 2.318-5.176 5.176v13.919c0 2.859 2.318 5.176 5.176 5.176h495.141c2.859 0 5.177-2.318 5.177-5.176v-13.919c0-2.858-2.318-5.176-5.177-5.176z" fill="#e9efff"/><path d="m126.893 198.863v-28.261c0-2.859 2.318-5.177 5.177-5.177h-123.64c-2.859 0-5.177 2.318-5.177 5.177v28.261c0 2.859 2.318 5.177 5.177 5.177h123.64c-2.859 0-5.177-2.318-5.177-5.177z" fill="#dae2fe"/><path d="m126.893 120.532v-13.919c0-2.859 2.318-5.176 5.177-5.176h-123.64c-2.859 0-5.177 2.318-5.177 5.176v13.919c0 2.859 2.318 5.176 5.177 5.176h123.64c-2.859 0-5.177-2.317-5.177-5.176z" fill="#dae2fe"/><path d="m104.868 459.842v-21.985h-24.436c7.645 7.855 15.802 15.209 24.436 21.985z" fill="#abbaef"/><path d="m147.164 486.539c14.073 6.99 28.912 12.666 44.36 16.869v-65.551h-44.36z" fill="#dae2fe"/><path d="m278.18 437.857h-44.36v73.133c7.307.656 14.702 1.01 22.18 1.01s14.872-.354 22.18-1.01z" fill="#dae2fe"/><path d="m320.476 503.408c15.448-4.203 30.286-9.879 44.36-16.869v-48.682h-44.36z" fill="#dae2fe"/><path d="m407.132 459.842c8.634-6.776 16.79-14.13 24.436-21.985h-24.436z" fill="#dae2fe"/><path d="m103.836 459.016c13.676 10.852 28.538 20.269 44.36 28.035v-49.194h-44.36z" fill="#bec8f7"/><g fill="#e9efff"><path d="m190.492 503.129c14.304 3.96 29.133 6.65 44.36 7.953v-73.224h-44.36z"/><path d="m277.148 511.082c15.227-1.302 30.056-3.993 44.36-7.953v-65.272h-44.36z"/><path d="m363.804 487.052c15.822-7.766 30.684-17.183 44.36-28.035v-21.159h-44.36z"/><path d="m143.039 204.04h-34.046c-6.623 0-11.992 5.369-11.992 11.992s5.369 11.992 11.992 11.992h34.046c6.623 0 11.992-5.369 11.992-11.992 0-6.624-5.369-11.992-11.992-11.992z"/></g><path d="m123.952 216.031c0-6.623 5.369-11.992 11.992-11.992h-26.952c-6.623 0-11.992 5.369-11.992 11.992s5.369 11.992 11.992 11.992h26.952c-6.623 0-11.992-5.369-11.992-11.992z" fill="#dae2fe"/><path d="m229.695 204.04h-34.046c-6.623 0-11.992 5.369-11.992 11.992s5.369 11.992 11.992 11.992h34.046c6.623 0 11.992-5.369 11.992-11.992 0-6.624-5.369-11.992-11.992-11.992z" fill="#e9efff"/><path d="m210.609 216.031c0-6.623 5.369-11.992 11.992-11.992h-26.952c-6.623 0-11.992 5.369-11.992 11.992s5.369 11.992 11.992 11.992h26.951c-6.623 0-11.991-5.369-11.991-11.992z" fill="#dae2fe"/><path d="m316.351 204.04h-34.046c-6.623 0-11.992 5.369-11.992 11.992s5.369 11.992 11.992 11.992h34.046c6.623 0 11.992-5.369 11.992-11.992 0-6.624-5.369-11.992-11.992-11.992z" fill="#e9efff"/><path d="m297.265 216.031c0-6.623 5.369-11.992 11.992-11.992h-26.952c-6.623 0-11.991 5.369-11.991 11.992s5.369 11.992 11.991 11.992h26.952c-6.624 0-11.992-5.369-11.992-11.992z" fill="#dae2fe"/><path d="m403.007 204.04h-34.046c-6.623 0-11.992 5.369-11.992 11.992s5.369 11.992 11.992 11.992h34.046c6.623 0 11.992-5.369 11.992-11.992 0-6.624-5.369-11.992-11.992-11.992z" fill="#e9efff"/><path d="m383.921 216.031c0-6.623 5.369-11.992 11.992-11.992h-26.952c-6.623 0-11.991 5.369-11.991 11.992s5.369 11.992 11.991 11.992h26.952c-6.623 0-11.992-5.369-11.992-11.992z" fill="#dae2fe"/><path d="m489.663 204.04h-34.046c-6.623 0-11.992 5.369-11.992 11.992s5.369 11.992 11.992 11.992h34.046c6.623 0 11.992-5.369 11.992-11.992 0-6.624-5.369-11.992-11.992-11.992z" fill="#e9efff"/><path d="m470.577 216.031c0-6.623 5.369-11.992 11.992-11.992h-26.952c-6.623 0-11.991 5.369-11.991 11.992s5.369 11.992 11.991 11.992h26.952c-6.623 0-11.992-5.369-11.992-11.992z" fill="#dae2fe"/></g></svg>