<svg id="Layer_1" enable-background="new 0 0 512 512" height="512" viewBox="0 0 512 512" width="512" xmlns="http://www.w3.org/2000/svg"><g><path d="m244.998 22.004c-106.745 0-197.528 68.275-231.107 163.531l189.828 322.985c13.422 2.278 27.209 3.48 41.279 3.48 135.309 0 244.998-109.689 244.998-244.998s-109.689-244.998-244.998-244.998z" fill="#5c45bf"/><path d="m256.299 327.987c-24.872-16.228-34.572-45.035-44.842-75.532-5.678-16.862-11.55-34.297-20.226-49.325-3.64-6.304-6.865-13.715-9.675-22.165-39.521 15.16-83.311 14.972-122.72-.585-15.455-6.101-32.187-3.63-44.945 5.155-8.986 25.489-13.891 52.903-13.891 81.467 0 121.239 88.069 221.892 203.719 241.518 30.165-28.747 53.024-66.633 64.998-90.258 12.499-24.662 8.345-52.527 2.744-80.937-6.426-3.753-11.598-7.013-15.162-9.338z" fill="#73c3f9"/><path d="m256.299 327.987c-24.872-16.229-34.572-45.035-44.843-75.533-5.678-16.862-11.55-34.297-20.226-49.325-3.64-6.304-6.865-13.715-9.675-22.165-17.55 6.732-35.943 10.43-54.419 11.107l.001.007s23.971 5 29.971 30.347 9.5 49.347 9.5 49.347 3.173 12.959-3.811 20.857l10.56 20.24s28.654 33.403 9.612 90.134l15.698 38.763s24.562 23.815 15.171 56.489c25.16-27.024 44.283-59.09 54.878-79.995 12.499-24.662 8.345-52.527 2.745-80.936-6.427-3.752-11.599-7.012-15.162-9.337z" fill="#4fabf7"/><path d="m435.698 61.986c-11.233-19.456-31.879-38.01-50.551-52.178-20.846-15.818-50.494-12.127-66.769 8.364-26.693 33.607-65.159 55.816-107.609 62.128-25.883 3.849-43.905 27.68-40.628 53.642 2.935 23.255 8.68 50.412 19.913 69.868 23.8 41.222 25.919 99.488 65.503 125.316s131.893 73.66 192.827 38.48 65.664-139.039 63.089-186.233c-2.576-47.196-51.976-78.165-75.775-119.387z" fill="#ffc839"/><path d="m457.902 361.204c-46.539 6.932-64.794-31.599-75.128-47.599s-3.37-30.113-3.37-30.113l-83.03-23.767c-40.401-21.213-20.473-63.231-20.473-63.231-16.206-11.527-2.893-27.926-2.893-27.926-12.795-.93-15.567-13.629-15.567-13.629s-3.333-13.667-12.025-41.667 15.104-48.486 15.104-48.486l-.004-.002c-15.551 7.644-32.311 12.923-49.746 15.515-25.884 3.849-43.905 27.68-40.628 53.642 2.934 23.255 8.679 50.412 19.912 69.868 23.8 41.222 25.919 99.488 65.503 125.315s131.893 73.66 192.827 38.48c3.342-1.929 6.506-4.077 9.518-6.4z" fill="#ffb332"/><g fill="#5c45bf"><path d="m410.111 111.921c-11.466-10.289-29.007-10.822-41.036-1.198-14.095 11.276-15.944 31.884-4.292 45.476.016.018.032.037.047.055 2.007 2.33 5.803 1.49 6.764-1.431 2.738-8.323 7.706-16.028 14.844-22.147 7.136-6.118 15.508-9.85 24.149-11.285 3.047-.506 4.439-4.145 2.432-6.493-.886-1.036-1.854-2.032-2.908-2.977z"/><path d="m246.09 206.619c-3.177-15.074 5.131-30.532 19.481-36.138 16.813-6.568 35.584 2.134 41.53 19.021.008.023.016.046.024.069 1.014 2.903-1.611 5.771-4.621 5.143-8.577-1.79-17.734-1.34-26.602 1.782-8.866 3.121-16.284 8.505-21.848 15.272-1.962 2.386-5.809 1.772-6.839-1.14-.455-1.288-.833-2.624-1.125-4.009z"/><path d="m438.816 183.266c6.41 35.928-9.792 73.604-43.223 92.905s-74.16 14.494-102.07-9.02c-3.057-2.575-1.145-7.555 2.85-7.424 26.552.871 53.663-5.419 78.363-19.68s43.703-34.595 56.225-58.025c1.885-3.526 7.153-2.691 7.855 1.244z"/><path d="m120.963 377.916c-29.457 0-55.564 14.292-71.802 36.31 4.462 5.926 9.184 11.645 14.155 17.136 17.709-7.54 37.185-11.732 57.647-11.732 28.521 0 55.145 8.108 77.704 22.138 3.394 2.111 7.539-1.246 6.18-5.005-12.413-34.32-45.281-58.847-83.884-58.847z"/><path d="m27.437 318.671c-.651-15.392 10.089-29.27 25.166-32.436 17.665-3.71 34.747 7.965 37.83 25.6l.012.072c.523 3.03-2.54 5.427-5.405 4.311-8.165-3.178-17.271-4.242-26.532-2.623-9.259 1.618-17.463 5.707-24.064 11.465-2.328 2.03-6.022.791-6.558-2.251-.236-1.343-.389-2.724-.449-4.138z"/><path d="m214.489 318.671c.651-15.392-10.089-29.27-25.166-32.436-17.665-3.71-34.747 7.965-37.83 25.6-.004.024-.008.048-.012.072-.522 3.03 2.54 5.427 5.405 4.311 8.165-3.178 17.271-4.242 26.532-2.623 9.259 1.618 17.463 5.707 24.064 11.465 2.328 2.03 6.022.791 6.558-2.251.236-1.343.389-2.724.449-4.138z"/></g></g></svg>