<svg id="Layer_1" enable-background="new 0 0 512 512" height="512" viewBox="0 0 512 512" width="512" xmlns="http://www.w3.org/2000/svg"><g><path d="m244.998 11.002c-36.867 0-71.824 8.159-103.187 22.745l52.428 461.973c16.378 3.451 33.354 5.279 50.759 5.279 135.309 0 244.998-109.689 244.998-244.998s-109.689-244.999-244.998-244.999z" fill="#2d3c6b"/><path d="m150.547 41.322c-8.95 0-17.773.538-26.45 1.553-74.107 42.131-124.097 121.786-124.097 213.125 0 110.881 73.667 204.542 174.723 234.751 113.094-12.063 201.185-107.773 201.185-224.068 0-124.463-100.897-225.361-225.361-225.361z" fill="#e80054"/><path d="m174.723 490.751c50.683-5.406 96.335-27.62 131.297-60.949-1.88-1.862-2.337-4.515-2.36-6.543-.018-1.63-1.258-2.961-2.876-3.159-13.786-1.681-15.542-12.185-15.531-17.493.003-1.619-1.158-3.037-2.764-3.243-9.754-1.251-11.185-8.695-11.187-12.945 0-1.569-1.104-2.936-2.652-3.195-6.741-1.132-8.05-6.256-8.203-9.394-.069-1.429-1.116-2.601-2.506-2.937-6.551-1.583-7.602-5.827-7.457-8.821.081-1.657-1.012-3.174-2.646-3.459-7.414-1.292-8.346-7.053-8.217-10.483.055-1.448-.904-2.715-2.309-3.069-6.959-1.751-7.873-6.599-7.692-9.689.092-1.572-.926-2.979-2.454-3.363-33.961-8.555-36.536-44.378-36.519-55.27.002-1.563-1.072-2.967-2.61-3.246-4.174-.757-5.397-4.41-5.747-6.807-.184-1.267-1.128-2.286-2.365-2.616-8.314-2.218-9.189-7.878-8.845-11.413.162-1.667-.926-3.202-2.569-3.532-16.456-3.312-17.791-14.702-17.769-18.486.005-.83-.325-1.62-.915-2.203l-48.218-47.602c-.514-.507-1.189-.819-1.906-.906-31.377-3.783-29.34-30.72-27.571-40.359.319-1.74-.826-3.372-2.555-3.745-6.393-1.377-7.185-6.803-7.049-10.09.061-1.469-.846-2.786-2.241-3.249-10.366-3.44-9.243-12.912-8.443-16.383.069-.298.076-.599.057-.897-32.515 41.577-51.901 93.92-51.901 150.795 0 110.881 73.667 204.541 174.723 234.751z" fill="#cc0053"/><path d="m150.547 77.229c-35.985 0-69.658 10.087-98.343 27.578-32.701 41.641-52.204 94.139-52.204 151.193 0 76.965 35.501 145.629 91.008 190.544 18.732 6.217 38.747 9.593 59.539 9.593 104.465 0 189.454-84.989 189.454-189.454s-84.989-189.454-189.454-189.454z" fill="#ff7186"/><path d="m284.517 400.515c-.493-.612-1.199-1.044-2.027-1.15-9.754-1.251-11.185-8.695-11.187-12.945 0-1.569-1.104-2.936-2.652-3.195-6.741-1.132-8.05-6.256-8.203-9.394-.069-1.429-1.116-2.601-2.506-2.937-6.551-1.583-7.602-5.827-7.457-8.821.081-1.657-1.012-3.174-2.646-3.459-7.414-1.292-8.346-7.053-8.217-10.483.055-1.448-.904-2.715-2.309-3.069-6.959-1.751-7.873-6.599-7.692-9.689.092-1.572-.926-2.979-2.454-3.363-33.961-8.555-36.536-44.378-36.519-55.27.002-1.563-1.072-2.967-2.61-3.246-4.174-.757-5.397-4.41-5.747-6.807-.184-1.267-1.128-2.286-2.365-2.616-8.314-2.218-9.189-7.878-8.845-11.413.162-1.667-.926-3.202-2.569-3.532-16.456-3.312-17.791-14.702-17.769-18.486.005-.83-.325-1.62-.915-2.203l-48.218-47.602c-.514-.507-1.189-.819-1.906-.906-31.377-3.783-29.34-30.72-27.571-40.359.319-1.74-.826-3.372-2.555-3.745-6.393-1.377-7.185-6.803-7.049-10.09.061-1.469-.846-2.786-2.241-3.249-10.366-3.44-9.243-12.912-8.443-16.383.069-.301.077-.605.056-.906-32.516 41.58-51.901 93.927-51.901 150.803 0 76.965 35.501 145.629 91.008 190.544 18.732 6.217 38.747 9.593 59.539 9.593 52.267 0 99.659-21.276 133.97-55.622z" fill="#ff4155"/><path d="m150.547 106.608c-62.156 0-116.149 35.611-142.654 87.5-5.147 19.771-7.893 40.51-7.893 61.892 0 40.805 9.989 79.272 27.634 113.112 29.387 35.205 73.576 57.646 122.913 57.646 88.265 0 160.075-71.809 160.075-160.075 0-88.265-71.81-160.075-160.075-160.075z" fill="#ff4155"/><path d="m263.026 380.462c-1.949-2.039-2.484-4.707-2.578-6.631-.069-1.429-1.116-2.601-2.506-2.937-6.551-1.583-7.602-5.827-7.457-8.821.081-1.657-1.012-3.174-2.646-3.459-7.414-1.292-8.346-7.053-8.217-10.483.055-1.448-.904-2.715-2.309-3.069-6.959-1.751-7.873-6.599-7.692-9.689.092-1.572-.926-2.979-2.454-3.363-33.961-8.555-36.536-44.378-36.519-55.27.002-1.563-1.072-2.967-2.61-3.246-4.174-.757-5.397-4.41-5.747-6.807-.184-1.267-1.128-2.286-2.365-2.616-8.314-2.218-9.189-7.878-8.845-11.413.162-1.667-.926-3.202-2.569-3.532-16.456-3.312-17.791-14.702-17.769-18.486.005-.83-.325-1.62-.915-2.203l-48.218-47.602c-.514-.507-1.189-.819-1.906-.906-31.377-3.783-29.34-30.72-27.571-40.359.319-1.74-.826-3.372-2.555-3.745-2.845-.613-4.577-2.029-5.615-3.701-23.719 15.316-43.163 36.71-56.072 61.983-5.145 19.772-7.891 40.511-7.891 61.893 0 40.805 9.989 79.272 27.634 113.112 29.387 35.205 73.576 57.646 122.913 57.646 43.803 0 83.547-17.691 112.479-46.296z" fill="#e80054"/><path d="m150.547 98.447c-53.517 0-101.276 25.121-132.11 64.187-10.465 25.367-16.8 52.87-18.153 81.68 10.849-73.197 74.097-129.545 150.263-129.545 83.765 0 151.914 68.149 151.914 151.914s-68.149 151.913-151.914 151.913c-64.454 0-119.655-40.353-141.684-97.118 7.654 27.662 20.025 53.363 36.214 76.169 28.873 23.298 65.568 37.271 105.47 37.271 92.765 0 168.236-75.47 168.236-168.236s-75.471-168.235-168.236-168.235z" fill="#e80054"/><g fill="#cc0053"><path d="m270.608 384.404c-.472-.606-1.152-1.044-1.956-1.179-6.741-1.132-8.05-6.256-8.203-9.394-.031-.644-.269-1.231-.64-1.718-27.645 28.64-66.406 46.483-109.261 46.483-64.454 0-119.655-40.353-141.684-97.118 7.654 27.662 20.025 53.363 36.213 76.169 28.873 23.298 65.568 37.271 105.471 37.271 46.975 0 89.508-19.361 120.06-50.514z"/><path d="m71.485 137.018c-.462-.583-1.118-1.022-1.905-1.191-6.393-1.377-7.185-6.803-7.049-10.09.031-.735-.181-1.432-.576-2.004-16.665 10.366-31.403 23.551-43.519 38.902-10.465 25.367-16.8 52.87-18.153 81.68 6.727-45.384 33.6-84.283 71.202-107.297z"/></g><g><path d="m273.237 295.063c-7.12-26.576-34.537-42.405-61.112-35.283-22.186 5.945-35.398 28.831-29.454 51.016 5.004 18.672 24.268 29.799 42.939 24.789 4.63-1.24 7.377-5.999 6.136-10.629-1.24-4.631-5.997-7.38-10.629-6.136-9.427 2.521-19.155-3.09-21.681-12.517-3.467-12.94 4.241-26.29 17.182-29.758 17.331-4.641 35.209 5.678 39.854 23.011 6.113 22.82-7.477 46.359-30.297 52.475-59.176 15.85-94.298-63.837-51.261-83.733 52.604-24.317 60.882-85.959 25.593-121.249-23.475-23.473-61.665-23.473-85.141 0-30.384 30.385-9.79 82.766 29.454 82.766 34.293 0 52.687-38.547 29.454-61.782-3.513-3.511-9.286-3.383-12.635.382-3.036 3.414-2.756 8.729.452 11.983 6.812 6.908 6.782 18.072-.09 24.942-9.472 9.474-24.888 9.474-34.359 0-6.37-6.37-9.774-14.915-9.518-23.96.253-8.937 6.791-20.471 13.901-25.893 16.473-12.561 40.606-11.77 56.209 3.835 22.585 22.584 23.425 62.526-8.216 85.883-11.441 8.444-27.028 8.552-38.645.352-47.346-33.418-104.883-9.992-117.855 38.429-8.613 32.135 10.426 65.119 42.568 73.732 26.629 7.135 54.007-8.76 61.113-35.282 9.278-34.627-27.499-64.001-56.057-47.514-7.916 4.571-13.632 11.883-16.155 20.643-1.398 4.855 1.252 10.135 6.163 11.327 4.589 1.114 9.249-1.657 10.441-6.258 4.711-18.177 27.561-16.464 36.416-1.129 11.963 20.727-10.945 48.543-37.427 41.447-22.872-6.128-36.425-29.598-30.296-52.475 8.275-30.885 42.35-51.62 78.533-35.807 13.022 5.69 20.91 19.115 19.628 33.268-5.2 57.417 43.541 95.903 92.225 82.856 32.062-8.59 51.159-41.667 42.567-73.731z" fill="#e9efff"/></g><path d="m150.547 33.161c-2.603 0-5.197.058-7.786.142-12.774 5.874-24.953 12.815-36.429 20.709 14.281-2.965 29.068-4.529 44.215-4.529 119.765 0 217.201 97.436 217.201 217.199 0 118.364-95.173 214.905-213.01 217.147 13 5.155 26.546 9.229 40.527 12.113 45.337-8.745 87.035-30.762 120.408-64.135 44.107-44.106 68.397-102.749 68.397-165.125 0-62.375-24.291-121.018-68.397-165.124-44.107-44.106-102.75-68.397-165.126-68.397z" fill="#ff4155"/><path d="m314.942 432.525c-.535-.317-1.159-.494-1.818-.473-8.065.252-9.424-5.236-9.464-8.793-.008-.75-.284-1.43-.728-1.973-38.311 37.762-90.535 61.446-148.195 62.544 13 5.155 26.546 9.23 40.527 12.113 45.01-8.682 86.427-30.45 119.678-63.418z" fill="#e80054"/><path d="m411.641 328.466 24.411-14.094c-69.619-83.51-68.035-173.755-93.729-218.258-30.143-52.21-83.604-76.205-104.231-83.842-2.138-.792-4.51-.593-6.485.547-.557.322-1.059.714-1.51 1.154z" fill="#e9efff"/><g fill="#dae2fe"><path d="m411.641 328.466 24.411-14.094c-11.227-13.467-20.593-27.108-28.53-40.706-5.094 6.135-13.921 5.587-19.331 4.506-1.784-.357-3.539.323-4.631 1.649z"/><path d="m227.891 18.162c-3.7 21.681-9.65 79.977 20.493 132.188 25.694 44.503 104.64 88.254 142.153 190.3l22.735-13.126-181.664-314.704c-1.975 1.14-3.333 3.095-3.717 5.342z"/><path d="m227.891 18.162c-3.7 21.681-9.65 79.977 20.493 132.188 25.694 44.503 104.64 88.254 142.153 190.3l22.735-13.126-181.664-314.704c-1.975 1.14-3.333 3.095-3.717 5.342z"/></g><path d="m382.681 281.44c-2.507 8.02-9.551 10.935-14.368 11.997 8.292 14.252 15.857 29.89 22.224 47.213l22.735-13.126-28.224-48.893c-1.094.569-1.971 1.545-2.367 2.809z" fill="#bec8f7"/><path d="m493.45 435.151-27.014 15.596c-2.615-4.53-4.466-9.459-5.478-14.591-2.038-10.333-7.445-19.699-15.375-26.63-3.938-3.442-7.282-7.51-9.897-12.039l-20.574-35.635 27.014-15.597 20.574 35.635c2.615 4.53 4.466 9.459 5.478 14.591 2.038 10.333 7.445 19.699 15.375 26.63 3.938 3.442 7.282 7.51 9.897 12.04z" fill="#ffb332"/><path d="m457.843 373.479-15.717-27.223-27.014 15.597 16.123 27.926c4.094-22.099 26.608-16.3 26.608-16.3z" fill="#ff9100"/><path d="m504.956 459.773-22.949 13.25c-6.721 3.88-15.394 1.556-19.275-5.165-3.88-6.721-1.556-15.394 5.164-19.275l22.949-13.25c6.721-3.88 15.394-1.556 19.275 5.165 3.881 6.722 1.557 15.395-5.164 19.275z" fill="#ffdd40"/><path d="m482.065 456.103c-2.823-4.89-2.815-10.67-.495-15.413l-13.673 7.895c-6.721 3.88-9.045 12.554-5.165 19.275s12.554 9.045 19.274 5.165l15.22-8.788c-5.989.339-11.97-2.609-15.161-8.134z" fill="#ffc839"/><path d="m457.156 331.717c-.463 4.768-3.259 8.999-7.408 11.394l-41.17 23.77c-4.148 2.395-9.21 2.701-13.571.718-8.067-3.668-15.108-9.793-19.878-18.054l76.331-44.069c4.769 8.261 6.553 17.421 5.696 26.241z" fill="#ffc839"/><g><path d="m451.46 305.476c.313.542.598 1.087.895 1.631-.286-.547-.583-1.091-.895-1.631z" fill="#ffc839"/><path d="m426.583 349.369c-6.032-4.843-11.875-11.66-16.644-19.921l-34.809 20.097c4.769 8.26 11.81 14.386 19.878 18.054 4.361 1.982 9.423 1.677 13.571-.718l26.792-15.469c-2.257 1.303-5.528.575-8.788-2.043z" fill="#ffb332"/></g><g><path d="m371.169 359.999c-2.82 0-5.564-1.463-7.075-4.082-2.254-3.903-.916-8.894 2.987-11.148l84.266-48.65c3.902-2.252 8.895-.917 11.148 2.987 2.254 3.903.916 8.894-2.987 11.148l-84.266 48.65c-1.284.742-2.688 1.095-4.073 1.095z" fill="#ffdd40"/></g><path d="m406.895 331.58c-1.874-3.245-1.584-7.137.408-10.032l-40.221 23.221c-3.903 2.254-5.241 7.245-2.987 11.148 1.511 2.618 4.255 4.082 7.075 4.082 1.385 0 2.789-.353 4.073-1.095l39.243-22.657c-3.048-.183-5.951-1.824-7.591-4.667z" fill="#ffc839"/><path d="m238.908 346.255h-.016c-3.798 2.544-8.062 4.527-12.717 5.775-59.176 15.85-94.298-63.837-51.261-83.733 2.256-1.043 4.424-2.159 6.517-3.334-13.483-3.331-11.158-14.822-11.158-14.822l-.008-.015c-9.623 2.99-20.334 1.475-28.894-4.567-47.346-33.418-104.883-9.992-117.855 38.429-8.613 32.135 10.426 65.119 42.568 73.732 26.629 7.135 54.007-8.76 61.113-35.282 9.279-34.627-27.498-64.001-56.057-47.514-7.916 4.571-13.632 11.883-16.155 20.643-1.398 4.855 1.252 10.135 6.163 11.327 4.589 1.114 9.249-1.657 10.441-6.258 4.711-18.177 27.561-16.464 36.416-1.128 11.963 20.727-10.945 48.542-37.427 41.447-22.872-6.128-36.425-29.598-30.296-52.475 8.275-30.885 42.35-51.62 78.533-35.807 13.022 5.689 20.91 19.115 19.628 33.268-5.2 57.417 43.541 95.903 92.225 82.855 7.06-1.892 13.488-4.973 19.134-8.966-14.498-.633-10.894-13.575-10.894-13.575z" fill="#bec8f7"/><g><path d="m352.074 65.006c-.679 0-1.37-.074-2.06-.228-5.105-1.133-8.324-6.189-7.19-11.293l3.83-17.252c1.132-5.105 6.186-8.33 11.293-7.191 5.105 1.133 8.324 6.19 7.19 11.293l-3.83 17.253c-.979 4.414-4.891 7.418-9.233 7.418z" fill="#dae2fe"/></g><g><path d="m411.942 118.594c-.679 0-1.37-.074-2.06-.228l-29.986-6.657c-5.105-1.133-8.325-6.189-7.19-11.293 1.133-5.106 6.192-8.324 11.293-7.19l29.986 6.657c5.105 1.133 8.325 6.19 7.19 11.293-.979 4.414-4.891 7.418-9.233 7.418z" fill="#dae2fe"/></g><g><path d="m376.736 82.282c-3.129 0-6.19-1.55-7.994-4.384-2.808-4.411-1.51-10.262 2.901-13.071l34.828-22.175c4.412-2.808 10.264-1.509 13.07 2.901 2.808 4.411 1.51 10.262-2.901 13.07l-34.828 22.175c-1.577 1.005-3.337 1.484-5.076 1.484z" fill="#dae2fe"/></g></g></svg>