<svg id="Layer_1" enable-background="new 0 0 512 512" height="512" viewBox="0 0 512 512" width="512" xmlns="http://www.w3.org/2000/svg"><g><path d="m454.668 410.376c29.142-40.31 46.329-89.832 46.329-143.374 0-135.309-109.689-244.998-244.998-244.998s-244.997 109.689-244.997 244.998c0 53.543 17.188 103.065 46.331 143.375z" fill="#21b75d"/><path d="m404.147 376.462c-5.333-.926-10.531-2.396-15.512-4.37-61.005-21.581-57.438-20.136-59.942-21.259-13.105-5.877-21.414-19.059-21.878-33.413l-.629-19.431c-16.183-3.163-32.967-4.842-50.184-4.842-17.216 0-34.001 1.679-50.184 4.842l-.629 19.431c-.469 14.479-8.961 28.339-23.614 34.146l-58.207 20.527c-4.98 1.973-10.179 3.443-15.511 4.37-11.49 1.996-35.673 8.837-51.965 31.915 23.343 32.98 54.635 59.932 91.082 78.077l251.596-20.195c22.251-15.95 41.723-35.533 57.543-57.884-16.295-23.077-40.477-29.917-51.966-31.914z" fill="#fcad6d"/><path d="m257.048 309.914 4.003-16.706c-1.68-.032-3.361-.061-5.05-.061-17.216 0-34.001 1.679-50.184 4.842l-.629 19.431c-.469 14.479-8.961 28.339-23.614 34.146l-58.207 20.527c-4.98 1.973-10.179 3.443-15.511 4.37-11.49 1.996-35.673 8.837-51.965 31.915 14.152 19.995 31.242 37.756 50.616 52.7 19.24-42.774 121.838-75.076 121.838-75.076 35.092-22.999 28.703-76.088 28.703-76.088z" fill="#fd995b"/><path d="m369.084 362.911c-2.562.234-5.076-.723-6.829-2.605-6.322-6.787-14.758-7.412-19.638-7.085-2.489.167-4.863-.897-6.486-2.791-9.458-11.045-20.139-9.136-20.139-9.136s-1.569 26.007-20.839 54.044c-25.892 37.671-64.81 64.308-109.01 75.966-12.562 3.313-26.993 7.952-40.885 14.288 33.261 16.884 70.888 26.408 110.742 26.408 53.868 0 103.664-17.399 144.106-46.864-5.713-48.725-11.471-93.043-11.471-93.043-6.009-8.842-14.515-9.642-19.551-9.182z" fill="#e9efff"/><path d="m256 512c53.868 0 103.664-17.399 144.106-46.864-.534-4.552-1.068-9.064-1.597-13.506-25.684 14.52-39.244 2.963-45.023-5.156-2.328-3.27-6.373-4.923-10.269-3.955-16.641 4.138-24.913-5.106-28.591-11.775-1.874-3.397-5.598-5.279-9.463-4.949-21.705 1.85-20.675-16.426-20.675-16.426l-.006.001c-25.366 30.267-59.848 51.782-98.339 61.934-12.562 3.313-26.993 7.952-40.885 14.288 33.261 16.884 70.888 26.408 110.742 26.408z" fill="#dae2fe"/><path d="m351.934 165.499c-.714-10.511-4.588-20.569-11.147-28.813-14.065-17.679-45.022-49.773-84.411-49.773s-70.345 32.092-84.41 49.77c-6.559 8.244-10.433 18.301-11.147 28.812-1.347 19.804 2.019 41.094 2.019 41.094 7.084 31.258 16.952 54.477 26.91 71.52 11.783 20.165 29.908 35.876 51.399 45.174 9.655 4.177 20.764 4.194 30.458 0 21.491-9.298 39.615-25.009 51.399-45.174 9.959-17.043 19.827-40.263 26.91-71.52.001.001 3.366-21.286 2.02-41.09z" fill="#f9ba8f"/><path d="m258.291 323.284c-18.175-9.298-33.503-25.009-43.468-45.174-8.422-17.043-16.767-40.262-22.758-71.52 0 0-2.846-21.29-1.707-41.094.604-10.511 3.88-20.568 9.427-28.812 11.075-16.461 34.537-45.412 64.607-49.323-2.63-.289-5.302-.447-8.015-.447-39.389 0-70.345 32.092-84.41 49.77-6.559 8.244-10.433 18.301-11.147 28.812-1.347 19.804 2.019 41.094 2.019 41.094 7.084 31.258 16.952 54.477 26.91 71.52 11.783 20.165 29.908 35.876 51.399 45.174 7.329 3.171 15.494 3.938 23.243 2.293-2.082-.523-4.127-1.284-6.1-2.293z" fill="#fcad6d"/><g><path d="m159.286 142.052v.001z" fill="#633"/></g><g><path d="m269.169 221.358-5.416-.972c-1.231-.222-2.501.002-3.584.63l-4.294 2.49-4.292-2.49c-1.082-.628-2.352-.85-3.584-.63l-5.416.972c-2.872.515-4.783 3.262-4.267 6.134.515 2.872 3.262 4.781 6.133 4.267l3.509-.629 5.267 3.055c.006.003.012.005.017.008 1.57.901 3.55.981 5.265.001.006-.004.013-.006.019-.009l5.267-3.055 3.509.629c2.868.518 5.618-1.394 6.133-4.267.517-2.872-1.393-5.619-4.266-6.134z" fill="#fd995b"/></g><g><path d="m327.982 187.823c-5.556-6.267-10.918-9.887-15.887-11.731.975 2.354 1.522 5.081 1.492 7.984-.05 4.928-1.748 9.3-4.363 12.169 4.139-.93 7.373-2.277 9.368-3.311 4.038-2.094 7.085-2.927 8.895-3.257.754-.138 1.045-1.234.495-1.854z" fill="#e9efff"/></g><g><path d="m290.365 183.752c.021-2.12.352-4.134.925-5.974-2.477 1.366-4.479 2.939-5.896 4.265-3.232 3.024-8.837 6.839-11.905 8.854-.58.381-.355 1.418.31 1.427l.301.004c2.828.038 5.636.595 8.312 1.671 4.632 1.863 9.073 2.819 13.186 3.172-3.197-2.86-5.289-7.809-5.233-13.419z" fill="#e9efff"/></g><g><path d="m281.993 184.894c-2.954 2.291-6.352 4.59-8.504 6.003-.58.381-.355 1.418.31 1.427l.301.004c2.828.038 5.636.595 8.312 1.671.452.182.9.348 1.349.512-1.223-2.093-1.945-4.752-1.916-7.643.006-.674.063-1.331.148-1.974z" fill="#fd995b"/></g><g><path d="m290.37 178.306c-.697 1.812-1.095 3.818-1.116 5.933-.054 5.475 2.422 10.289 6.15 12.915 5.409.489 10.257-.071 14.233-1.004 2.942-2.681 4.855-6.853 4.901-11.567.03-3.088-.744-5.967-2.094-8.361-9.032-3.492-16.788-1.083-22.074 2.084z" fill="#7f3822"/></g><g><path d="m302.871 180.687c0-2.312-.692-4.423-1.832-6.051-4.162.441-7.784 1.941-10.669 3.669-.697 1.812-1.096 3.818-1.116 5.933-.008.816.047 1.615.147 2.397 1.397 2.056 3.501 3.365 5.857 3.365 4.205.001 7.613-4.169 7.613-9.313z" fill="#6d2b19"/></g><g><path d="m310.084 180.682c0 1.164-.943 2.107-2.107 2.107s-2.107-.943-2.107-2.107.943-2.107 2.107-2.107 2.107.943 2.107 2.107z" fill="#b76c4e"/></g><g><path d="m184.171 187.823c5.556-6.267 10.918-9.887 15.887-11.731-.976 2.354-1.522 5.081-1.492 7.984.05 4.928 1.748 9.3 4.363 12.169-4.139-.93-7.373-2.277-9.368-3.311-4.038-2.094-7.085-2.927-8.895-3.257-.753-.138-1.045-1.234-.495-1.854z" fill="#e9efff"/></g><g><path d="m221.788 183.752c-.021-2.12-.352-4.134-.925-5.974 2.477 1.366 4.479 2.939 5.896 4.265 3.232 3.024 8.837 6.839 11.905 8.854.58.381.355 1.418-.31 1.427l-.301.004c-2.828.038-5.636.595-8.312 1.671-4.632 1.863-9.073 2.819-13.186 3.172 3.197-2.86 5.29-7.809 5.233-13.419z" fill="#e9efff"/></g><g><path d="m230.16 184.894c2.954 2.291 6.352 4.59 8.504 6.003.58.381.355 1.418-.31 1.427l-.301.004c-2.828.038-5.636.595-8.312 1.671-.452.182-.9.348-1.349.512 1.223-2.093 1.945-4.752 1.916-7.643-.005-.674-.062-1.331-.148-1.974z" fill="#fd995b"/></g><g><path d="m221.783 178.306c.696 1.812 1.095 3.818 1.116 5.933.054 5.475-2.422 10.289-6.15 12.915-5.409.489-10.257-.071-14.233-1.004-2.942-2.681-4.855-6.853-4.901-11.567-.03-3.088.744-5.967 2.094-8.361 9.033-3.492 16.789-1.083 22.074 2.084z" fill="#7f3822"/></g><g><path d="m209.282 180.687c0-2.312.692-4.423 1.832-6.051 4.162.441 7.784 1.941 10.669 3.669.697 1.812 1.095 3.818 1.117 5.933.008.816-.047 1.615-.147 2.397-1.397 2.056-3.501 3.365-5.857 3.365-4.205.001-7.614-4.169-7.614-9.313z" fill="#6d2b19"/></g><g><path d="m202.069 180.682c0 1.164.944 2.107 2.107 2.107 1.164 0 2.107-.943 2.107-2.107s-.943-2.107-2.107-2.107c-1.163 0-2.107.943-2.107 2.107z" fill="#b76c4e"/></g><g><path d="m331.618 167.516c-1.002-4.327-4.433-14.301-14.966-15.861-10.636-1.576-32.337 4.589-41.107 7.29-2.336.719-4.082 2.672-4.54 5.073l-1.32 6.921c-.112.587.459 1.073 1.021.868 6.621-2.416 37.132-13.226 46.857-10.908 7.415 1.768 11.41 5.102 13.212 7.063.341.374.957.047.843-.446z" fill="#7f3822"/></g><g><path d="m180.134 167.516c1.002-4.327 4.433-14.301 14.966-15.861 10.636-1.576 32.337 4.589 41.107 7.29 2.336.719 4.082 2.672 4.54 5.073l1.32 6.921c.112.587-.459 1.073-1.021.868-6.621-2.416-37.132-13.226-46.857-10.908-7.415 1.768-11.41 5.102-13.212 7.063-.341.374-.957.047-.843-.446z" fill="#7f3822"/></g><g><path d="m284.26 261.479c.603-.713.024-1.936-.788-1.658-10.603 3.627-27.596 3.403-27.596 3.403s-16.993.224-27.595-3.403c-.812-.278-1.392.945-.788 1.658 6.451 7.619 15.504 14.282 28.384 14.282 12.879 0 21.932-6.663 28.383-14.282z" fill="#ff4155"/></g><g><path d="m217.968 154.05c-8.341-1.869-17.184-3.238-22.867-2.396-10.533 1.561-13.965 11.534-14.966 15.861-.114.493.502.819.844.447 1.803-1.962 5.797-5.296 13.212-7.063 4.282-1.021 12.594.504 21.122 2.737-3.262-3.108-1.741-8.604 2.655-9.586z" fill="#6d2b19"/></g><g><path d="m301.985 152.442c-9.917 1.629-20.827 4.774-26.44 6.503-2.336.719-4.082 2.672-4.54 5.073l-1.32 6.921c-.112.587.459 1.073 1.02.868 4.588-1.674 20.649-7.379 33.315-9.952-3.98-1.382-5.108-6.491-2.035-9.413z" fill="#6d2b19"/></g><g><path d="m252.508 263.189c-5.492-.134-16.538-.738-24.228-3.369-.812-.278-1.392.945-.788 1.658 5.448 6.434 12.751 12.186 22.648 13.82-4.074-3.642-2.753-10.28 2.368-12.109z" fill="#e80054"/></g><g><g><path d="m255.876 263.936s17.596.231 28.149-3.599c.653-.237.738-1.31.141-1.709-8.074-5.391-14.644-6.718-18.348-5.449-2.522.864-4.67 1.4-6.317 1.733-2.38.48-4.869.48-7.249 0-1.647-.332-3.795-.869-6.317-1.733-3.705-1.269-10.275.059-18.348 5.449-.597.399-.512 1.471.141 1.709 10.552 3.83 28.148 3.599 28.148 3.599z" fill="#ff7186"/></g></g><g><path d="m252.206 254.902c-1.641-.333-3.771-.867-6.271-1.723-3.705-1.268-10.275.059-18.348 5.449-.597.399-.512 1.471.141 1.709 7.114 2.582 17.421 3.318 23.389 3.523-2.78-2.594-2.218-7.114 1.089-8.958z" fill="#ff4155"/></g><path d="m196.43 343.049c11.54 26.83 31.407 47.11 57.453 58.647.909.403 1.862.594 2.801.594 2.556 0 5-1.415 6.134-3.811 1.549-3.277.061-7.149-3.324-8.649-23.087-10.227-40.056-27.513-50.435-51.378-.615-1.413-1.186-2.808-1.719-4.181-1.003-2.587-3.484-4.292-6.259-4.292-4.706 0-7.986 4.728-6.274 9.112.508 1.301 1.049 2.622 1.623 3.958z" fill="#ffdd40"/><path d="m312.295 329.979c-2.775 0-5.256 1.705-6.259 4.292-.532 1.373-1.104 2.768-1.719 4.181-10.379 23.865-27.348 41.151-50.435 51.378-3.385 1.5-4.874 5.372-3.324 8.649 1.133 2.397 3.577 3.811 6.134 3.811.938 0 1.892-.191 2.801-.594 26.045-11.538 45.912-31.818 57.451-58.647.575-1.336 1.115-2.657 1.624-3.959 1.713-4.383-1.567-9.111-6.273-9.111z" fill="#ffdd40"/><path d="m259.773 405.558c-.826-2.008-2.984-3.188-5.187-2.836-6.768 1.083-12.988 5.002-16.624 11.235s-3.891 13.412-1.354 19.582c.826 2.008 2.984 3.188 5.187 2.836 6.768-1.083 12.988-5.002 16.624-11.235s3.891-13.412 1.354-19.582z" fill="#ffc839"/><path d="m254.322 405.558c.826-2.008 2.984-3.188 5.187-2.836 6.768 1.083 12.988 5.002 16.624 11.235s3.891 13.412 1.354 19.582c-.826 2.008-2.984 3.188-5.187 2.836-6.768-1.083-12.988-5.002-16.624-11.235s-3.89-13.412-1.354-19.582z" fill="#ffdd40"/><path d="m340.087 345.65c-3.76-.734-7.397 1.717-8.131 5.473-.054.278-5.643 28.247-23.616 64.434-13.581 27.345-36.672 63.919-73.323 95.539 6.483.55 13.037.852 19.654.887 32.277-30.701 53.253-64.428 66.083-90.261 18.796-37.845 24.57-66.731 24.807-67.942.733-3.756-1.718-7.397-5.474-8.13z" fill="#bec8f7"/><path d="m366.17 355.565c-3.808-.332-7.178 2.477-7.517 6.29-.074.843-7.495 79.862-45.223 143.359 6.395-1.536 12.692-3.323 18.88-5.35 33.241-63.159 39.851-133.429 40.15-136.781.338-3.813-2.477-7.179-6.29-7.518z" fill="#bec8f7"/><ellipse cx="257.048" cy="394.464" fill="#ffdd40" rx="12.276" ry="11.883"/><path d="m265.821 391.438c0 3.003-2.515 5.437-5.617 5.437s-5.617-2.434-5.617-5.437 2.515-5.437 5.617-5.437 5.617 2.434 5.617 5.437z" fill="#fcea9d"/><path d="m354.539 37.132c-30.628-32.385-51.032-31.565-62.987-28.156-4.553 1.298-9.41.727-13.471-1.569-30.22-17.092-72.523.752-72.523.752-58.036 21.665-80.657 69.632-74.81 107.819 3.803 24.838-.559 45.459-4.264 60.293-4.042 16.182.165 33.214 11.164 46.058 16.535 19.309 17.539 35.264 17.291 46.23-.244 10.811 2.832 21.361 8.847 30.506 1.632 2.482 2.94 4.913 3.986 7.251.982 2.196 3.19 3.585 5.596 3.585 3.477 0 6.289-2.873 6.166-6.348-.146-4.101-1.14-8.569-3.427-13.317-10.912-22.653 24.035-49.858.727-69.049s-27.952-78.175 44.301-89.954c37.058-6.041 54.452-14.275 62.606-20.864 3.055-2.469 7.724-1.356 9.085 2.199 2.351 6.141 7.278 13.356 17.436 19.181 7.389 4.237 14.081 9.504 19.276 16.037 3.029 3.808 5.972 8.114 7.828 12.315 8.195 18.03 4.025 39.023-6.423 50.388-20.432 22.228 15.192 44.726 7.514 68.67-4.127 12.87-.11 22.769 4.488 29.173 2.146 2.988 6.862 1.46 6.879-2.219.024-5.422 1.087-12.542 4.883-20.467 4.702-9.817 6.193-20.647 4.466-31.259-1.768-10.869-.216-27.281 13.647-48.818 4.668-7.253 7.444-14.4 9.463-23.355l4.836-22.801c0 .001 12.665-74.441-32.58-122.281z" fill="#7f3822"/><path d="m199.81 136.796-.025-.112s31.965-32.184 13.212-75.201c-18.753-43.016 39.443-61.29 39.447-61.291-24.083-1.651-46.887 7.968-46.887 7.968-58.036 21.665-80.658 69.632-74.81 107.819 3.803 24.838-.559 45.459-4.264 60.293-4.043 16.182.164 33.214 11.164 46.058 16.535 19.309 17.539 35.264 17.291 46.23-.244 10.811 2.832 21.361 8.847 30.506 1.632 2.482 2.94 4.913 3.986 7.251.982 2.196 3.19 3.585 5.596 3.585 3.477 0 6.289-2.873 6.166-6.348-.146-4.101-1.14-8.569-3.428-13.317-10.912-22.653 24.035-49.858.727-69.049-20.716-17.059-26.683-65.55 22.978-84.392z" fill="#6d2b19"/><path d="m254.738 40.214c.083-3.019-2.362-5.507-5.381-5.467-38.571.513-75.296 18.56-99.209 49.728-16.078 20.956-25.095 46.024-26.156 72.03-.146 3.591 2.754 6.566 6.346 6.465 3.58-.101 6.336-3.217 5.974-6.78-.86-8.459-.186-13.713-.158-13.918.006-.044.012-.088.017-.132 3.154-18.462 10.761-36.004 22.414-51.192 21.91-28.558 55.56-45.095 90.903-45.568 2.854-.038 5.171-2.313 5.25-5.166z" fill="#ffb332"/><path d="m240.465 71.552c-.314.963-1.182 1.627-2.194 1.677-14.618.729-25.449-13.386-20.894-27.339.314-.963 1.182-1.627 2.194-1.677 14.618-.73 25.449 13.385 20.894 27.339z" fill="#ffdd40"/><path d="m214.153 84.839c-.069 1.157-.838 2.141-1.943 2.489-15.963 5.031-32.025-7.455-31.018-24.21.069-1.157.838-2.141 1.943-2.489 15.963-5.031 32.025 7.456 31.018 24.21z" fill="#ffdd40"/><path d="m183.95 60.472c-.99.602-2.237.53-3.153-.18-13.226-10.257-12.109-30.57 2.237-39.284.99-.601 2.237-.531 3.153.18 13.227 10.257 12.109 30.571-2.237 39.284z" fill="#ffc839"/><path d="m191.909 105.452c.312 1.211-.15 2.476-1.169 3.2-14.719 10.459-35.351 2.967-39.873-14.568-.312-1.211.15-2.476 1.169-3.2 14.72-10.459 35.351-2.966 39.873 14.568z" fill="#ffdd40"/><path d="m151.75 90.969c-.817.946-2.121 1.287-3.296.861-16.98-6.144-22.57-27.369-10.731-41.072.817-.946 2.121-1.287 3.296-.861 16.98 6.143 22.569 27.37 10.731 41.072z" fill="#ffc839"/><path d="m177.381 134.919c.666 1.135.564 2.55-.259 3.578-11.882 14.846-34.938 13.222-44.586-3.226-.666-1.135-.564-2.551.259-3.578 11.881-14.845 34.938-13.222 44.586 3.226z" fill="#ffdd40"/><path d="m161.901 122.689c-10.813-3.295-22.231.414-29.106 9.005-.822 1.028-.925 2.443-.259 3.578 5.134 8.753 14.679 13.954 24.953 13.377-12.023-5.021-9.733-25.019 4.412-25.96z" fill="#ffc839"/><path d="m132.53 131.862c-.554 1.194-1.776 1.916-3.089 1.825-18.967-1.313-30.766-21.188-22.739-38.487.554-1.194 1.776-1.916 3.089-1.825 18.97 1.312 30.765 21.19 22.739 38.487z" fill="#ffc839"/><path d="m181.936 90.909c-9.018-6.438-20.974-6.368-29.9-.025-1.019.724-1.481 1.99-1.169 3.2 2.424 9.398 9.96 16.892 20.021 18.861-9.17-8.696-1.508-24.174 11.048-22.036z" fill="#ffc839"/><g><path d="m193.679 71.137c3.643-4.68 10.147-5.815 15.117-2.867-6.312-7.7-16.467-10.538-25.66-7.64-1.105.348-1.874 1.333-1.943 2.489-.558 9.282 4.266 18.1 12.669 22.553-3.379-4.115-3.591-10.158-.183-14.535z" fill="#ffc839"/></g><g><path d="m238.348 54.037c-4.17-6.69-11.423-10.192-18.777-9.825-1.012.05-1.88.713-2.194 1.677-2.428 7.439-.589 15.864 5.467 21.626-3.681-9.528 6.618-18.452 15.504-13.478z" fill="#ffc839"/></g><g fill="#ffb332"><path d="m133.129 110.364c-4.03-9.845-13.151-16.135-23.321-16.813-1.313-.088-2.533.637-3.084 1.833-4.542 9.854-2.865 21.538 4.664 29.732-.737-11.504 11.193-19.758 21.741-14.752z"/><path d="m157.975 73.262c-.414-10.732-7.292-19.766-17.049-23.268-1.177-.423-2.479-.079-3.294.869-7.055 8.208-8.212 19.815-3.057 29.206.652-12.03 16.265-16.764 23.4-6.807z"/><path d="m194.752 45.271c2.059-9.287-1.525-18.541-8.73-24.099-.917-.708-2.164-.776-3.153-.172-8.129 4.965-12.513 14.204-11.227 23.63 5.1-9.53 18.71-8.854 23.11.641z"/><path d="m258.305 40.404c-.091-3.018 2.348-5.513 5.367-5.481 38.572.415 75.343 18.37 99.335 49.477 16.131 20.916 25.211 45.961 26.338 71.964.155 3.591-2.737 6.573-6.33 6.481-3.58-.091-6.344-3.201-5.991-6.765.839-8.461.151-13.714.123-13.919-.007-.044-.012-.088-.018-.132-3.2-18.454-10.852-35.977-22.543-51.136-21.983-28.502-55.674-44.954-91.018-45.338-2.854-.029-5.177-2.298-5.263-5.151z"/></g><path d="m281.442 12.293c.568-.839 1.585-1.237 2.572-1.006 14.251 3.335 20.764 19.892 12.533 32.046-.568.839-1.585 1.237-2.572 1.006-14.25-3.335-20.763-19.892-12.533-32.046z" fill="#ffdd40"/><path d="m272.696 71.552c.314.963 1.182 1.627 2.194 1.677 14.618.729 25.449-13.386 20.894-27.339-.314-.963-1.182-1.627-2.194-1.677-14.618-.73-25.449 13.385-20.894 27.339z" fill="#ffc839"/><path d="m299.007 84.839c.069 1.157.838 2.141 1.943 2.489 15.963 5.031 32.025-7.455 31.018-24.21-.07-1.157-.838-2.141-1.943-2.489-15.962-5.031-32.024 7.456-31.018 24.21z" fill="#ffc839"/><path d="m329.21 60.472c.99.602 2.237.53 3.153-.18 13.226-10.257 12.109-30.57-2.237-39.284-.99-.601-2.237-.531-3.153.18-13.226 10.257-12.108 30.571 2.237 39.284z" fill="#ffdd40"/><path d="m321.251 105.452c-.312 1.211.15 2.476 1.169 3.2 14.719 10.459 35.351 2.967 39.873-14.568.312-1.211-.15-2.476-1.169-3.2-14.719-10.459-35.35-2.966-39.873 14.568z" fill="#ffc839"/><path d="m361.41 90.969c.817.946 2.121 1.287 3.296.861 16.98-6.144 22.57-27.369 10.731-41.072-.817-.946-2.121-1.287-3.296-.861-16.98 6.143-22.568 27.37-10.731 41.072z" fill="#ffdd40"/><path d="m335.779 134.919c-.666 1.135-.564 2.55.259 3.578 11.882 14.846 34.939 13.222 44.586-3.226.666-1.135.564-2.551-.259-3.578-11.881-14.845-34.937-13.222-44.586 3.226z" fill="#ffc839"/><path d="m380.63 131.862c.554 1.194 1.776 1.916 3.089 1.825 18.967-1.313 30.766-21.188 22.738-38.487-.554-1.194-1.776-1.916-3.089-1.825-18.968 1.312-30.763 21.19-22.738 38.487z" fill="#ffdd40"/><path d="m297.504 21.456c-.544 9.366-11.426 14.265-18.797 8.476 2.031 6.829 7.494 12.586 15.269 14.406.987.231 2.004-.167 2.572-1.006 4.708-6.951 4.585-15.341.956-21.876z" fill="#ffc839"/><path d="m279.257 48.947c-6.275 5.194-9.393 13.929-6.561 22.604.314.963 1.182 1.626 2.194 1.677 9.268.462 17.007-5.045 20.274-12.693-7.886 3.136-16.473-2.966-15.907-11.588z" fill="#ffb332"/><path d="m313.353 61.482c-8.734 3.803-14.985 12.715-14.346 23.357.069 1.157.838 2.141 1.943 2.489 9.901 3.12 19.835-.501 25.716-7.697-11.118 4.368-20.753-8.942-13.313-18.149z" fill="#ffb332"/><path d="m340.684 34.783c-3.685 10.784-19.161 10.38-22.227-.638-2.449 9.667 1.239 20.548 10.754 26.327.99.602 2.237.53 3.153-.18 8.198-6.358 10.88-16.58 8.32-25.509z" fill="#ffc839"/><path d="m360.539 58.309c-7.144 9.227-7.591 22.864.871 32.66.817.946 2.121 1.287 3.296.861 10.973-3.97 17.18-14.24 17.009-24.707-6.956 10.918-24.051 3.934-21.176-8.814z" fill="#ffc839"/><path d="m345.593 86.116c-10.936.279-21.295 7.524-24.342 19.336-.312 1.211.15 2.476 1.169 3.2 10.148 7.211 23.104 5.887 31.656-1.376-12.344 2.186-18.963-14.186-8.483-21.16z" fill="#ffb332"/><path d="m358.202 135.095c0-6.266 4.952-11.363 11.154-11.624-11.88-4.79-26.418-.757-33.576 11.447-.666 1.135-.564 2.551.259 3.578 8.015 10.015 21.113 12.524 31.752 8.054-5.45-.973-9.589-5.726-9.589-11.455z" fill="#ffb332"/><path d="m399.862 115.309c-8.759 0-14.345-9.306-10.332-17.015-10.14 7.212-14.702 21.063-8.899 33.569.554 1.194 1.776 1.916 3.089 1.825 13.103-.907 22.78-10.673 24.868-22.328-2.135 2.416-5.248 3.949-8.726 3.949z" fill="#ffc839"/><path d="m436.592 101.454c1.792 38.239 1.04 97.616-16.842 133.444-28 56.102-46.744 84.615-26.206 91.525 15.951 5.367 64.544 14.863 85.458 42.16 14.12-30.948 21.995-65.344 21.995-101.582.001-63.826-24.415-121.946-64.405-165.547z" fill="#38c674"/><path d="m75.408 101.454c-1.791 38.239-1.04 97.616 16.841 133.444 28 56.102 46.744 84.615 26.206 91.525-15.951 5.367-64.543 14.863-85.458 42.16-14.12-30.948-21.995-65.344-21.995-101.582 0-63.826 24.415-121.946 64.406-165.547z" fill="#38c674"/><path d="m234.969 27.857c1.067-5.508-.154-11.144-3.253-15.696-.57-.838-1.588-1.233-2.574-.999-6.036 1.429-11.152 5.352-13.912 10.909-.009-.033.009.033 0 0-.767 1.581-1.307 3.209-1.653 4.85-.026.117-.061.23-.085.348.003-.003.007-.005.011-.009-1.067 5.508.154 11.144 3.253 15.696.57.838 1.588 1.233 2.574.999 6.036-1.428 11.119-5.448 13.879-11.005.009.033-.009-.033 0 0 .767-1.581 1.34-3.113 1.686-4.754.026-.117.061-.23.085-.348-.004.004-.008.006-.011.009z" fill="#ffc839"/><path d="m233.248 32.954c3.469-6.955 2.728-14.853-1.293-20.901-.561-.844-1.574-1.251-2.563-1.028-7.778 1.749-14.048 7.784-15.828 15.931 6.73-5.986 17.442-2.686 19.684 5.998z" fill="#ffb332"/></g></svg>