<svg id="Layer_1" enable-background="new 0 0 512 512" height="512" viewBox="0 0 512 512" width="512" xmlns="http://www.w3.org/2000/svg"><g><path d="m11.089 260.503c-.056 2.16-.087 4.326-.087 6.499 0 9.194.524 18.265 1.51 27.197l8.213 41.318c3.91 13.45 8.939 26.422 14.986 38.808l28.921 45.643c10.052 12.559 21.313 24.105 33.61 34.466l61.466 37.907c13.319 5.699 27.243 10.253 41.653 13.536l19.071 3.544c11.613 1.689 23.486 2.579 35.568 2.579s23.955-.89 35.569-2.579l19.071-3.544c14.41-3.282 28.334-7.837 41.653-13.536l61.466-37.907c12.297-10.361 23.558-21.906 33.61-34.466l28.92-45.643c6.046-12.387 11.075-25.358 14.985-38.808l8.213-41.318c.986-8.932 1.51-18.002 1.51-27.197 0-2.173-.03-4.34-.087-6.499l-5.715-46.661c-24.281-109.747-122.144-191.838-239.195-191.838s-214.914 82.091-239.196 191.838z" fill="#5c45bf"/><path d="m11.089 260.503c-.056 2.16-.087 4.326-.087 6.499 0 9.194.524 18.265 1.51 27.197l8.213 41.318c3.91 13.45 8.939 26.422 14.986 38.808l28.921 45.643c10.052 12.559 21.313 24.105 33.61 34.466l61.466 37.907c13.319 5.699 27.243 10.253 41.653 13.536l19.071 3.544c11.613 1.689 23.486 2.579 35.568 2.579s23.955-.89 35.569-2.579l19.071-3.544c14.41-3.282 28.334-7.837 41.653-13.536l61.466-37.907c12.297-10.361 23.558-21.906 33.61-34.466l28.92-45.643c6.046-12.387 11.075-25.358 14.985-38.808l8.213-41.318c.986-8.932 1.51-18.002 1.51-27.197 0-2.173-.03-4.34-.087-6.499l-5.715-46.661c-24.281-109.747-122.144-191.838-239.195-191.838s-214.914 82.091-239.196 191.838z" fill="#5c45bf"/><path d="m238.66 462.856c-44.758-9.808-85.051-33.523-116.522-68.582-32.16-35.826-52.196-80.467-57.941-129.098-7.741-65.521 12.106-131.045 54.452-179.771 2.968-3.417 2.606-8.593-.81-11.561-3.414-2.968-8.591-2.607-11.561.81-45.369 52.205-66.64 122.348-58.358 192.446 6.144 52.007 27.59 99.77 62.021 138.123 33.779 37.63 77.077 63.096 125.21 73.644 21.461 4.703 41.058 15.392 56.417 30.555 6.441-.937 12.803-2.117 19.072-3.544-18.446-21.646-43.821-36.851-71.98-43.022z" fill="#21b75d"/><path d="m405.722 74.653c-2.97-3.415-8.145-3.776-11.561-.81-3.415 2.969-3.778 8.145-.81 11.561 42.347 48.727 62.194 114.251 54.452 179.771-5.745 48.632-25.781 93.272-57.941 129.098-31.471 35.059-71.764 58.774-116.522 68.582-28.159 6.171-53.534 21.376-71.98 43.02 6.269 1.428 12.631 2.608 19.072 3.544 15.359-15.163 34.956-25.852 56.417-30.555 48.133-10.548 91.431-36.014 125.21-73.644 34.43-38.354 55.877-86.117 62.021-138.123 8.282-70.096-12.989-140.239-58.358-192.444z" fill="#21b75d"/><g><path d="m240.417 498.37c-4.527 0-8.195-3.668-8.195-8.195v-25.445c0-4.526 3.668-8.195 8.195-8.195 4.526 0 8.195 3.669 8.195 8.195v25.445c-.001 4.527-3.669 8.195-8.195 8.195z" fill="#ffb332"/></g><path d="m240.416 479.54c-4.526 0-8.195-3.668-8.195-8.195v18.83c0 4.527 3.669 8.195 8.195 8.195 4.527 0 8.195-3.668 8.195-8.195v-18.83c0 4.526-3.668 8.195-8.195 8.195z" fill="#ff9100"/><path d="m184.105 5.713c-.465-2.874-2.802-5.111-5.694-5.45-11.597-1.357-23.669 2.541-32.365 11.627s-12.063 21.317-10.198 32.844c.465 2.874 2.802 5.111 5.694 5.45 11.597 1.358 23.669-2.541 32.365-11.627 8.696-9.087 12.062-21.317 10.198-32.844z" fill="#49d88b"/><path d="m160.47 81.635c-7.792-8.786-19.459-13.945-32.068-12.953-3.419.269-6.697.978-9.788 2.06-1.376 8.496-5.622 16.289-12.272 22.187-1.882 1.67-4.68 1.89-6.8.535-.446-.285-.874-.587-1.305-.887.273.653.654 1.269 1.141 1.818 7.792 8.785 19.459 13.945 32.068 12.952s23.326-7.914 29.647-17.81c1.576-2.468 1.32-5.712-.623-7.902z" fill="#38c674"/><path d="m130.068 126.052c-9.167-8.246-21.95-12.25-34.987-9.725-3.535.685-6.872 1.811-9.969 3.305-.432 9.026-3.941 17.659-10.183 24.597-1.767 1.965-4.659 2.525-7.032 1.361-.498-.244-.981-.509-1.466-.771.362.649.832 1.247 1.405 1.762 9.167 8.246 21.949 12.25 34.987 9.725s23.401-11.012 28.827-22.084c1.353-2.76.704-6.114-1.582-8.17z" fill="#38c674"/><path d="m112.627 170.535c-11.902-5.588-26.187-5.73-38.716.871-3.398 1.79-6.456 3.97-9.156 6.45 2.344 9.348 1.427 19.242-2.803 28.252-1.197 2.551-3.977 4.015-6.758 3.56-.584-.095-1.159-.217-1.735-.335.57.551 1.234 1.016 1.978 1.365 11.902 5.588 26.187 5.73 38.716-.871 12.53-6.602 20.489-18.464 22.61-31.44.53-3.236-1.168-6.459-4.136-7.852z" fill="#38c674"/><path d="m104.5 218.184c-14.511-2.706-30.07 1.176-41.817 11.89-3.185 2.905-5.892 6.138-8.124 9.596 5.189 9.493 6.989 20.502 4.94 31.486-.579 3.11-3.186 5.486-6.336 5.777-.662.061-1.32.092-1.979.127.775.438 1.628.755 2.535.924 14.511 2.706 30.07-1.176 41.817-11.89s17.041-25.851 15.678-40.549c-.34-3.664-3.096-6.686-6.714-7.361z" fill="#38c674"/><path d="m109.22 266.911c-15.661 2.181-30.149 11.413-38.442 26.289-2.249 4.034-3.9 8.237-4.992 12.509 8.498 7.88 14.067 18.453 15.718 30.308.468 3.356-1.372 6.656-4.473 8.022-.651.287-1.31.543-1.968.802.936.181 1.91.214 2.89.077 15.661-2.182 30.148-11.413 38.441-26.289s8.527-32.053 2.148-46.522c-1.59-3.607-5.417-5.74-9.322-5.196z" fill="#38c674"/><path d="m132.061 316.995c-16.241 6.868-29.183 20.991-33.824 39.407-1.259 4.994-1.825 9.998-1.769 14.915 11.427 6.037 20.476 15.819 25.674 28.113 1.473 3.48.442 7.565-2.504 9.932-.619.497-1.255.962-1.888 1.431 1.06-.075 2.119-.321 3.135-.75 16.24-6.868 29.183-20.991 33.824-39.407 4.642-18.416-.061-36.987-11.106-50.731-2.756-3.428-7.493-4.622-11.542-2.91z" fill="#38c674"/><path d="m167.948 361.975c-13.73 13.85-21.036 33.738-18.046 54.53.811 5.638 2.335 10.996 4.458 16.003 14.227 1.375 27.596 7.58 38.079 17.973 2.969 2.942 3.631 7.554 1.611 11.213-.424.769-.879 1.512-1.331 2.258 1.053-.522 2.033-1.219 2.892-2.085 13.729-13.85 21.036-33.738 18.046-54.53s-15.604-37.815-32.68-47.235c-4.257-2.349-9.606-1.58-13.029 1.873z" fill="#38c674"/><path d="m327.895 5.713c.465-2.874 2.802-5.111 5.694-5.45 11.597-1.357 23.669 2.541 32.365 11.627s12.062 21.317 10.198 32.844c-.465 2.874-2.802 5.111-5.694 5.45-11.598 1.358-23.669-2.541-32.365-11.627-8.696-9.087-12.062-21.317-10.198-32.844z" fill="#49d88b"/><path d="m351.53 81.635c7.792-8.786 19.459-13.945 32.068-12.953 3.419.269 6.697.978 9.788 2.06 1.376 8.496 5.622 16.289 12.272 22.187 1.882 1.67 4.68 1.89 6.8.535.446-.285.874-.587 1.305-.887-.273.653-.654 1.269-1.141 1.818-7.792 8.785-19.459 13.945-32.068 12.952s-23.326-7.914-29.647-17.81c-1.576-2.468-1.32-5.712.623-7.902z" fill="#38c674"/><path d="m412.459 93.463c-2.12 1.355-4.918 1.135-6.8-.535-6.65-5.897-10.896-13.691-12.272-22.187-3.091-1.082-6.369-1.79-9.788-2.06-1.977-.156-3.926-.143-5.844-.006 7.537 3.183 12.828 10.643 12.828 19.338 0 8.487-5.049 15.78-12.299 19.085.75.103 1.507.187 2.272.247 12.609.993 24.277-4.167 32.068-12.953.487-.549.868-1.165 1.141-1.818-.432.302-.861.604-1.306.889z" fill="#21b75d"/><path d="m381.932 126.052c9.167-8.246 21.95-12.25 34.987-9.725 3.535.685 6.872 1.811 9.969 3.305.432 9.026 3.941 17.659 10.183 24.597 1.767 1.965 4.659 2.525 7.032 1.361.498-.244.981-.509 1.466-.771-.362.649-.832 1.247-1.405 1.762-9.167 8.246-21.949 12.25-34.987 9.725s-23.401-11.012-28.827-22.084c-1.353-2.76-.704-6.114 1.582-8.17z" fill="#38c674"/><path d="m444.102 145.591c-2.373 1.163-5.265.604-7.031-1.361-6.241-6.939-9.751-15.571-10.183-24.597-3.097-1.494-6.434-2.62-9.969-3.305-2.298-.445-4.586-.677-6.85-.729 6.426 4.639 10.613 12.188 10.613 20.718 0 8.243-3.909 15.57-9.97 20.24 12.501 1.936 24.645-2.054 33.452-9.975.573-.516 1.043-1.113 1.405-1.762-.485.262-.968.526-1.467.771z" fill="#21b75d"/><path d="m399.373 170.535c11.902-5.588 26.187-5.73 38.716.871 3.398 1.79 6.456 3.97 9.156 6.45-2.344 9.348-1.427 19.242 2.803 28.252 1.197 2.551 3.977 4.015 6.758 3.56.584-.095 1.159-.217 1.735-.335-.57.551-1.234 1.016-1.978 1.365-11.902 5.588-26.187 5.73-38.717-.871-12.529-6.602-20.489-18.464-22.61-31.44-.529-3.236 1.169-6.459 4.137-7.852z" fill="#38c674"/><path d="m456.806 209.667c-2.781.455-5.561-1.008-6.758-3.56-4.23-9.009-5.148-18.904-2.803-28.251-2.7-2.481-5.759-4.66-9.156-6.45-3.465-1.826-7.066-3.117-10.712-3.939 6.517 4.628 10.773 12.231 10.773 20.833 0 10.639-6.506 19.755-15.755 23.596 11.353 4.415 23.684 3.724 34.168-1.198.744-.349 1.408-.814 1.978-1.365-.576.118-1.151.239-1.735.334z" fill="#21b75d"/><path d="m407.5 218.184c14.511-2.706 30.07 1.176 41.817 11.89 3.185 2.905 5.892 6.138 8.124 9.596-5.189 9.493-6.989 20.502-4.94 31.486.579 3.11 3.186 5.486 6.336 5.777.662.061 1.32.092 1.979.127-.775.438-1.628.755-2.535.924-14.511 2.706-30.07-1.176-41.817-11.89s-17.041-25.851-15.677-40.549c.339-3.664 3.095-6.686 6.713-7.361z" fill="#38c674"/><path d="m458.836 276.934c-3.15-.292-5.756-2.668-6.336-5.778-2.049-10.983-.249-21.993 4.94-31.486-2.232-3.459-4.939-6.691-8.124-9.596-4.387-4.001-9.306-7.048-14.504-9.156 6.446 5.469 10.542 13.625 10.542 22.741 0 13.312-8.725 24.583-20.768 28.415 10.319 6.086 22.324 8.03 33.693 5.91.908-.169 1.761-.487 2.535-.924-.658-.034-1.317-.065-1.978-.126z" fill="#21b75d"/><path d="m402.78 266.911c15.661 2.181 30.149 11.413 38.441 26.289 2.249 4.034 3.9 8.237 4.992 12.509-8.498 7.88-14.067 18.453-15.718 30.308-.468 3.356 1.372 6.656 4.473 8.022.651.287 1.31.543 1.968.802-.935.181-1.91.214-2.889.077-15.661-2.182-30.148-11.413-38.441-26.289s-8.527-32.053-2.148-46.522c1.591-3.607 5.417-5.74 9.322-5.196z" fill="#38c674"/><path d="m446.214 305.71c-1.093-4.272-2.744-8.476-4.992-12.509-2.356-4.226-5.225-7.979-8.466-11.262 1.651 3.705 2.577 7.805 2.577 12.123 0 16.468-13.35 29.818-29.818 29.818-2.466 0-4.861-.305-7.153-.87 8.535 12.299 21.63 19.951 35.685 21.909.98.136 1.954.104 2.889-.077-.658-.259-1.316-.514-1.968-.801-3.101-1.367-4.941-4.666-4.473-8.023 1.652-11.855 7.221-22.428 15.719-30.308z" fill="#21b75d"/><path d="m379.94 316.995c16.241 6.868 29.183 20.991 33.824 39.407 1.259 4.994 1.825 9.998 1.769 14.915-11.427 6.037-20.476 15.819-25.674 28.113-1.473 3.48-.442 7.565 2.504 9.932.619.497 1.254.962 1.888 1.431-1.06-.075-2.119-.321-3.135-.75-16.24-6.868-29.183-20.991-33.824-39.407s.061-36.987 11.106-50.731c2.755-3.428 7.492-4.622 11.542-2.91z" fill="#38c674"/><path d="m415.533 371.317c.056-4.917-.51-9.921-1.769-14.915-.396-1.571-.874-3.098-1.387-4.605-4.072 13.94-16.94 24.127-32.196 24.127-9.327 0-17.762-3.809-23.842-9.953.26 1.554.561 3.109.953 4.663 4.642 18.416 17.584 32.54 33.824 39.407 1.016.43 2.075.676 3.135.75-.634-.469-1.27-.934-1.888-1.431-2.946-2.366-3.977-6.451-2.504-9.932 5.198-12.291 14.248-22.074 25.674-28.111z" fill="#21b75d"/><path d="m344.052 361.975c13.73 13.85 21.036 33.738 18.046 54.53-.811 5.638-2.334 10.996-4.457 16.003-14.227 1.375-27.596 7.58-38.079 17.973-2.969 2.942-3.631 7.554-1.612 11.213.424.769.879 1.512 1.331 2.258-1.053-.522-2.033-1.219-2.892-2.085-13.729-13.85-21.036-33.738-18.046-54.53s15.604-37.815 32.68-47.235c4.258-2.349 9.606-1.58 13.029 1.873z" fill="#38c674"/><g><path d="m333.598 425.842c-16.67 0-30.493-12.162-33.098-28.095-.939 3.096-1.682 6.289-2.157 9.59-2.99 20.791 4.317 40.679 18.046 54.53.859.866 1.839 1.563 2.892 2.085-.451-.746-.907-1.489-1.331-2.258-2.02-3.659-1.358-8.271 1.612-11.213 10.483-10.393 23.852-16.598 38.079-17.973 2.123-5.007 3.647-10.365 4.458-16.003.367-2.55.577-5.087.641-7.6-5.778 10.114-16.66 16.937-29.142 16.937z" fill="#21b75d"/></g><path d="m99.542 93.463c2.12 1.355 4.918 1.135 6.8-.535 6.65-5.897 10.896-13.691 12.272-22.187 3.091-1.082 6.369-1.79 9.788-2.06 1.977-.156 3.926-.143 5.844-.006-7.537 3.183-12.828 10.643-12.828 19.338 0 8.487 5.049 15.78 12.299 19.085-.75.103-1.507.187-2.272.247-12.609.993-24.277-4.167-32.068-12.953-.487-.549-.868-1.165-1.141-1.818.431.302.86.604 1.306.889z" fill="#21b75d"/><path d="m67.898 145.591c2.372 1.163 5.265.604 7.031-1.361 6.241-6.939 9.751-15.571 10.183-24.597 3.097-1.494 6.434-2.62 9.969-3.305 2.298-.445 4.586-.677 6.85-.729-6.426 4.639-10.613 12.188-10.613 20.718 0 8.243 3.909 15.57 9.97 20.24-12.501 1.936-24.645-2.054-33.452-9.975-.573-.516-1.043-1.113-1.405-1.762.485.262.968.526 1.467.771z" fill="#21b75d"/><path d="m55.194 209.667c2.781.455 5.561-1.008 6.758-3.56 4.23-9.009 5.148-18.904 2.803-28.251 2.7-2.481 5.758-4.66 9.156-6.45 3.465-1.826 7.066-3.117 10.712-3.939-6.517 4.628-10.774 12.231-10.774 20.833 0 10.639 6.506 19.755 15.755 23.596-11.353 4.415-23.684 3.724-34.168-1.198-.744-.349-1.408-.814-1.978-1.365.577.118 1.152.239 1.736.334z" fill="#21b75d"/><path d="m53.164 276.934c3.15-.292 5.756-2.668 6.336-5.778 2.049-10.983.249-21.993-4.94-31.486 2.232-3.459 4.939-6.691 8.124-9.596 4.387-4.001 9.306-7.048 14.504-9.156-6.446 5.469-10.542 13.625-10.542 22.741 0 13.312 8.726 24.583 20.768 28.415-10.319 6.086-22.324 8.03-33.693 5.91-.907-.169-1.761-.487-2.535-.924.658-.034 1.317-.065 1.978-.126z" fill="#21b75d"/><path d="m65.786 305.71c1.092-4.272 2.744-8.476 4.992-12.509 2.356-4.226 5.225-7.979 8.466-11.262-1.651 3.705-2.577 7.805-2.577 12.123 0 16.468 13.35 29.818 29.818 29.818 2.466 0 4.861-.305 7.153-.87-8.535 12.299-21.63 19.951-35.686 21.909-.979.136-1.954.104-2.889-.077.658-.259 1.316-.514 1.968-.801 3.101-1.367 4.941-4.666 4.473-8.023-1.651-11.855-7.22-22.428-15.718-30.308z" fill="#21b75d"/><path d="m96.467 371.317c-.056-4.917.51-9.921 1.769-14.915.396-1.571.874-3.098 1.387-4.605 4.072 13.94 16.94 24.127 32.196 24.127 9.327 0 17.762-3.809 23.842-9.953-.26 1.554-.561 3.109-.953 4.663-4.642 18.416-17.584 32.54-33.825 39.407-1.016.43-2.075.676-3.135.75.634-.469 1.27-.934 1.888-1.431 2.946-2.366 3.977-6.451 2.504-9.932-5.197-12.291-14.246-22.074-25.673-28.111z" fill="#21b75d"/><g><path d="m178.403 425.842c16.67 0 30.493-12.162 33.098-28.095.939 3.096 1.682 6.289 2.157 9.59 2.99 20.791-4.317 40.679-18.046 54.53-.859.866-1.839 1.563-2.892 2.085.451-.746.907-1.489 1.331-2.258 2.02-3.659 1.357-8.271-1.612-11.213-10.483-10.393-23.852-16.598-38.079-17.973-2.123-5.007-3.647-10.365-4.457-16.003-.367-2.55-.577-5.087-.641-7.6 5.776 10.114 16.658 16.937 29.141 16.937z" fill="#21b75d"/></g><path d="m409.908 31.898c2.468-1.576 5.711-1.321 7.902.622 8.785 7.792 13.945 19.459 12.953 32.068-.993 12.609-7.914 23.326-17.81 29.647-2.468 1.576-5.711 1.321-7.902-.622-8.786-7.792-13.945-19.459-12.953-32.068s7.914-23.326 17.81-29.647z" fill="#49d88b"/><path d="m448.714 81.058c2.761-1.353 6.115-.703 8.171 1.582 8.246 9.167 12.25 21.949 9.725 34.987s-11.012 23.401-22.084 28.827c-2.761 1.353-6.115.703-8.171-1.582-8.246-9.167-12.25-21.95-9.725-34.987 2.525-13.038 11.013-23.401 22.084-28.827z" fill="#49d88b"/><path d="m481.431 145.217c3.236-.529 6.459 1.169 7.852 4.137 5.588 11.902 5.73 26.187-.871 38.717-6.602 12.53-18.464 20.489-31.44 22.61-3.236.529-6.459-1.169-7.852-4.137-5.588-11.902-5.731-26.187.871-38.716 6.601-12.531 18.463-20.49 31.44-22.611z" fill="#49d88b"/><path d="m495.197 213.842c-11.821.986-23.314 6.253-31.939 15.709-10.714 11.747-14.597 27.306-11.89 41.817.675 3.618 3.696 6.374 7.361 6.714 14.698 1.363 29.835-3.931 40.549-15.678.567-.622 1.104-1.259 1.633-1.902-.416-15.983-2.378-31.58-5.714-46.66z" fill="#49d88b"/><path d="m455.563 297.405c-14.876 8.293-24.108 22.78-26.289 38.441-.544 3.905 1.589 7.732 5.197 9.322 14.468 6.379 31.646 6.145 46.521-2.148 3.807-2.122 7.238-4.655 10.282-7.505 3.878-13.338 6.648-27.146 8.213-41.318-13.897-5.259-29.928-4.594-43.924 3.208z" fill="#49d88b"/><path d="m427.999 365.069c-18.416 4.642-32.539 17.584-39.407 33.824-1.712 4.05-.518 8.787 2.909 11.541 13.745 11.046 32.315 15.748 50.731 11.107 1.757-.443 3.461-.984 5.137-1.573 11.234-14.036 20.958-29.329 28.921-45.643-13.46-9.704-30.942-13.628-48.291-9.256z" fill="#49d88b"/><path d="m373.02 431.353c-20.792-2.99-40.679 4.317-54.53 18.046-3.454 3.424-4.223 8.772-1.874 13.03 7.607 13.788 20.174 24.659 35.675 29.912 22.406-9.587 43.088-22.422 61.466-37.907-9.847-12.1-24.076-20.685-40.737-23.081z" fill="#49d88b"/><g><path d="m255.987 498.37c-4.527 0-8.195-3.668-8.195-8.195v-25.445c0-4.526 3.668-8.195 8.195-8.195 4.526 0 8.195 3.669 8.195 8.195v25.445c0 4.527-3.669 8.195-8.195 8.195z" fill="#ffc839"/></g><path d="m255.987 479.54c-4.526 0-8.195-3.668-8.195-8.195v18.83c0 4.527 3.668 8.195 8.195 8.195 4.526 0 8.195-3.668 8.195-8.195v-18.83c0 4.526-3.669 8.195-8.195 8.195z" fill="#ffb332"/><g><path d="m271.557 498.37c-4.526 0-8.195-3.668-8.195-8.195v-25.445c0-4.526 3.668-8.195 8.195-8.195 4.526 0 8.195 3.669 8.195 8.195v25.445c0 4.527-3.668 8.195-8.195 8.195z" fill="#ffdd40"/></g><path d="m271.557 479.54c-4.526 0-8.195-3.668-8.195-8.195v18.83c0 4.527 3.668 8.195 8.195 8.195s8.195-3.668 8.195-8.195v-18.83c0 4.526-3.669 8.195-8.195 8.195z" fill="#ffc839"/><path d="m365.954 11.89c-.89-.929-1.822-1.79-2.779-2.611.848 2.249 1.333 4.676 1.333 7.221 0 11.322-9.178 20.5-20.5 20.5-3.237 0-6.287-.771-9.009-2.107.944 1.267 1.972 2.492 3.093 3.663 8.696 9.086 20.768 12.985 32.365 11.627 2.892-.339 5.229-2.576 5.694-5.45 1.866-11.526-1.501-23.757-10.197-32.843z" fill="#38c674"/><path d="m146.046 11.89c.89-.929 1.823-1.79 2.779-2.611-.848 2.249-1.333 4.676-1.333 7.221 0 11.322 9.178 20.5 20.5 20.5 3.237 0 6.287-.771 9.008-2.107-.944 1.267-1.972 2.492-3.093 3.663-8.696 9.086-20.768 12.985-32.365 11.627-2.892-.339-5.229-2.576-5.694-5.45-1.864-11.526 1.502-23.757 10.198-32.843z" fill="#38c674"/><path d="m102.092 31.898c-2.468-1.576-5.711-1.321-7.902.622-8.786 7.792-13.945 19.459-12.953 32.068s7.914 23.326 17.81 29.647c2.468 1.576 5.711 1.321 7.902-.622 8.786-7.792 13.945-19.459 12.953-32.068s-7.913-23.326-17.81-29.647z" fill="#49d88b"/><path d="m63.286 81.058c-2.761-1.353-6.114-.703-8.171 1.582-8.246 9.167-12.25 21.949-9.725 34.987s11.012 23.401 22.084 28.827c2.761 1.353 6.115.703 8.171-1.582 8.246-9.167 12.25-21.95 9.725-34.987-2.525-13.038-11.012-23.401-22.084-28.827z" fill="#49d88b"/><path d="m30.569 145.217c-3.236-.529-6.459 1.169-7.852 4.137-5.588 11.902-5.73 26.187.871 38.717s18.464 20.489 31.44 22.61c3.236.529 6.459-1.169 7.852-4.137 5.588-11.902 5.731-26.187-.871-38.716-6.601-12.531-18.463-20.49-31.44-22.611z" fill="#49d88b"/><path d="m12.722 262.404c10.714 11.747 25.851 17.041 40.549 15.678 3.665-.34 6.687-3.096 7.361-6.714 2.706-14.511-1.176-30.07-11.89-41.817-8.625-9.456-20.117-14.723-31.938-15.709-3.337 15.08-5.298 30.677-5.715 46.661.529.642 1.066 1.28 1.633 1.901z" fill="#49d88b"/><path d="m82.726 335.847c-2.181-15.661-11.413-30.148-26.289-38.441-13.996-7.802-30.027-8.467-43.925-3.206 1.566 14.172 4.335 27.979 8.213 41.318 3.044 2.85 6.475 5.382 10.282 7.505 14.876 8.293 32.053 8.527 46.521 2.148 3.609-1.593 5.742-5.419 5.198-9.324z" fill="#49d88b"/><path d="m84.001 365.069c-17.349-4.372-34.831-.448-48.29 9.255 7.963 16.314 17.687 31.608 28.921 45.643 1.676.589 3.38 1.13 5.136 1.573 18.416 4.642 36.987-.061 50.731-11.107 3.427-2.754 4.621-7.491 2.909-11.541-6.867-16.239-20.991-29.181-39.407-33.823z" fill="#49d88b"/><path d="m138.98 431.353c-16.661 2.396-30.89 10.981-40.738 23.08 18.379 15.485 39.06 28.32 61.466 37.907 15.501-5.252 28.069-16.124 35.675-29.912 2.349-4.258 1.58-9.606-1.874-13.03-13.85-13.728-33.737-21.035-54.529-18.045z" fill="#49d88b"/><g fill="#67ef9e"><path d="m397.267 440.059c-14.462-3.095-28.5 3.831-31.97 16.143-2.58 9.155 1.379 18.822 9.313 25.199 13.937-7.729 27.045-16.769 39.149-26.967-4.604-5.656-10.174-10.529-16.492-14.375z"/><path d="m428.758 389.495c0 10.566 11.163 19.331 25.8 21.004 8.23-11.366 15.523-23.456 21.732-36.175-2.978-2.147-6.163-3.993-9.49-5.547-2.297-.375-4.689-.58-7.152-.58-17.06.001-30.89 9.536-30.89 21.298z"/><path d="m462.306 313.893c2.2 10.061 14.967 15.815 28.514 12.852 1.036-.227 2.043-.502 3.024-.814 2.551-10.335 4.45-20.927 5.643-31.732-5.918-2.24-12.223-3.395-18.593-3.392-12.461 3.507-20.68 13.519-18.588 23.086z"/><path d="m495.197 213.842c-5.447.454-10.82 1.829-15.879 4.092-8.028 6.966-10.997 17.322-6.533 25.054 4.848 8.398 16.758 10.74 27.541 5.829-.878-11.915-2.611-23.593-5.129-34.975z"/><path d="m114.733 440.059c14.462-3.095 28.5 3.831 31.97 16.143 2.58 9.155-1.379 18.822-9.313 25.199-13.937-7.729-27.045-16.769-39.149-26.967 4.604-5.656 10.174-10.529 16.492-14.375z"/><path d="m83.242 389.495c0 10.566-11.163 19.331-25.8 21.004-8.23-11.366-15.523-23.456-21.731-36.175 2.978-2.147 6.163-3.993 9.49-5.547 2.297-.375 4.689-.58 7.152-.58 17.059.001 30.889 9.536 30.889 21.298z"/><path d="m49.695 313.893c-2.2 10.061-14.966 15.815-28.514 12.852-1.036-.227-2.043-.502-3.024-.814-2.551-10.335-4.45-20.927-5.643-31.732 5.918-2.24 12.223-3.395 18.593-3.392 12.46 3.507 20.68 13.519 18.588 23.086z"/><path d="m16.803 213.842c5.447.454 10.82 1.829 15.879 4.092 8.028 6.966 10.997 17.322 6.533 25.054-4.848 8.398-16.758 10.74-27.541 5.829.879-11.915 2.611-23.593 5.129-34.975z"/></g><path d="m366.13 208.609c0 77.347-49.307 117.132-110.13 117.132s-110.13-39.785-110.13-117.132 49.307-140.048 110.13-140.048 110.13 62.701 110.13 140.048z" fill="#7255ce"/></g></svg>