<svg id="Layer_1" enable-background="new 0 0 512 512" height="512" viewBox="0 0 512 512" width="512" xmlns="http://www.w3.org/2000/svg"><g><path d="m464.893 395.061c22.894-37.265 36.105-81.117 36.105-128.059 0-135.309-109.69-244.998-244.998-244.998s-244.998 109.689-244.998 244.998c0 46.942 13.212 90.794 36.105 128.059z" fill="#5c45bf"/><path d="m413.709 372.188c-7.289-.596-11.167-3.424-19.757-8.268-21.453-12.097-43.266-21.051-67.263-26.589-10.933-10.933-13.704-31.659-14.203-46.161-5.706 6.646-11.694 12.204-17.415 16.647-11.147 8.656-24.903 13.358-39.071 13.358-14.167 0-27.924-4.702-39.071-13.358-5.722-4.443-11.71-10.002-17.415-16.647-.5 14.501-3.271 35.228-14.204 46.161-23.997 5.538-45.81 14.492-67.263 26.589-8.591 4.844-12.468 7.672-19.757 8.268-22.705 1.856-39.455 10.172-51.808 21.874 39.833 65.543 109.557 110.907 190.249 117.185l164.394-46.84c25.779-18.984 47.707-42.893 64.391-70.344-12.351-11.704-29.101-20.019-51.807-21.875z" fill="#fcad6d"/><path d="m216.929 307.818c-5.722-4.443-11.71-10.002-17.415-16.647-.499 14.501-3.271 35.228-14.204 46.161-23.997 5.538-45.81 14.492-67.263 26.589-8.59 4.844-12.468 7.672-19.757 8.268-22.705 1.856-39.455 10.172-51.808 21.874 16.737 27.54 38.752 51.515 64.64 70.526 16.087-63.205 84.643-69.585 84.643-69.585l17.125-8.004c28.871-12.717 38.264-46.893 41.292-65.862-13.523-.384-26.584-5.035-37.253-13.32z" fill="#fd995b"/><path d="m248.5 494.218c0 4.918-.746 9.715-2.12 14.279l17.98-5.123c-.563-2.986-.86-6.047-.86-9.156v-71.801l52.734-27.414c3.676-1.91 5.107-6.439 3.195-10.113-1.909-3.676-6.44-5.106-10.113-3.195l-53.316 27.716-53.317-27.716c-3.674-1.911-8.202-.482-10.113 3.195-1.911 3.675-.48 8.203 3.195 10.113l52.734 27.414v71.801z" fill="#fd995b"/><g><g><path d="m231.818 2.499c-55.904 12.365-62.233 42.505-62.258 54.306-.006 2.475-1.377 4.768-3.602 5.851-29.509 14.355-8.599 98.525-8.599 98.525 2.964.198 6.065 1.398 8.379 2.518.566-3.525 1.491-6.996 2.797-10.351.995-2.557 2.239-5.139 3.794-7.579 2.699-4.234 3.928-9.228 3.561-14.221-1.061-14.434-.55-42.874 18.502-51.447 16.14-7.262 35.939-3.057 48.565 1.142 8.2 2.727 17.082 2.727 25.282 0 12.626-4.199 32.425-8.404 48.566-1.142 18.997 8.548 19.56 36.852 18.511 51.323-.365 5.032.832 10.078 3.551 14.344 1.605 2.519 2.879 5.19 3.891 7.826 1.257 3.279 2.15 6.666 2.703 10.105 2.916-1.413 7.084-2.951 10.649-2.447.437-15.128 6.833-46.421 6.833-46.421 13.341-82.734-69.215-126.025-131.125-112.332z" fill="#7f3822"/></g></g><path d="m255.596.003c-8.095-.023-16.096.797-23.778 2.496-55.903 12.365-62.233 42.505-62.258 54.306-.006 2.475-1.377 4.768-3.602 5.851-29.509 14.355-8.599 98.525-8.599 98.525 2.964.198 6.065 1.398 8.379 2.518.566-3.525 1.491-6.996 2.797-10.351.995-2.557 2.239-5.139 3.794-7.579 2.699-4.234 3.928-9.228 3.561-14.221-1.061-14.434-.55-42.874 18.502-51.447 16.14-7.262 35.939-3.057 48.565 1.142.216.072.433.134.65.201-.146-.291-.277-.581-.43-.871-27.291-51.992 12.263-80.458 12.419-80.57z" fill="#6d2b19"/><path d="m362.887 162.969c-4.418-4.049-13.22-1.997-17.025.483.834 5.191.881 10.503.161 15.747l-4.491 32.707c0 2.637-.083 5.223-.236 7.765 10.95 3.303 16.39-6.528 17.306-13.274.395-2.904 1.039-5.767 1.934-8.56 2.914-9.097 13.422-24.723 2.351-34.868z" fill="#fcad6d"/><g><path d="m352.872 196.272c-3.328 0-6.38-1.18-8.761-3.143l-2.578 18.778c0 2.637-.083 5.223-.236 7.765 10.95 3.303 16.39-6.528 17.306-13.274.395-2.904 1.039-5.767 1.934-8.56.556-1.735 1.388-3.709 2.294-5.836-2.51 2.626-6.039 4.27-9.959 4.27z" fill="#fd995b"/></g><path d="m149.112 162.969c4.419-4.049 13.22-1.997 17.025.483-.833 5.191-.881 10.503-.161 15.747l4.491 32.707c0 2.637.083 5.223.236 7.765-10.95 3.303-16.39-6.528-17.306-13.274-.395-2.904-1.039-5.767-1.934-8.56-2.913-9.097-13.421-24.723-2.351-34.868z" fill="#fcad6d"/><g><path d="m167.756 192.155c-2.5 2.539-5.974 4.117-9.819 4.117-3.02 0-5.803-.982-8.074-2.629.629 1.504 1.191 2.915 1.601 4.195.895 2.793 1.539 5.656 1.934 8.56.916 6.747 6.356 16.577 17.306 13.274-.153-2.542-.236-5.128-.236-7.765z" fill="#fd995b"/></g><path d="m339.464 145.389c-2.578-4.043-3.8-8.985-3.443-13.914 1.14-15.734.197-43.414-18.925-52.018-16.06-7.224-35.552-3.382-49.075 1.116-8.009 2.666-16.832 2.665-24.841 0-13.524-4.498-33.016-8.344-49.075-1.116-8.224 3.701-21.615 15.396-18.916 52.144.356 4.841-.87 9.738-3.452 13.79-5.528 8.668-8.649 21.103-6.859 34.146l4.485 32.617c0 4.779.268 9.37.744 13.794-.005-.013-.012-.026-.017-.039 7.765 55 39.224 80.991 62.1 92.649 14.663 7.473 31.958 7.497 46.625.034 22.879-11.642 54.526-37.63 62.299-92.683-.005.014-.012.028-.018.042.471-4.395.736-8.955.735-13.7l4.492-32.707c1.783-12.995-1.3-25.431-6.859-34.155z" fill="#f9ba8f"/><g><path d="m218.803 225.908c.005.013.011.026.017.039-.476-4.424-.744-9.015-.744-13.794l-4.485-32.617c-1.79-13.043 1.331-25.478 6.859-34.146 2.581-4.052 3.808-8.949 3.452-13.79-2.567-34.961 9.425-47.24 17.68-51.539-13.432-4.263-32.034-7.556-47.478-.605-8.224 3.701-21.615 15.396-18.916 52.144.356 4.841-.87 9.738-3.452 13.79-5.528 8.668-8.649 21.103-6.859 34.146l4.485 32.617c0 4.779.268 9.37.744 13.794-.005-.013-.012-.026-.017-.039 7.765 55 39.224 80.991 62.1 92.649 14.663 7.473 31.958 7.497 46.625.034.355-.181.718-.376 1.078-.563-22.783-11.903-53.436-37.921-61.089-92.12z" fill="#fcad6d"/></g><path d="m271.249 224.847-6.093-1.094c-1.385-.25-2.814.002-4.032.709l-4.83 2.801-4.829-2.801c-1.217-.706-2.646-.956-4.032-.709l-6.093 1.094c-3.231.58-5.38 3.669-4.8 6.9.579 3.231 3.669 5.378 6.9 4.8l3.947-.708 5.925 3.436c.006.004.013.006.019.01 1.766 1.013 3.993 1.104 5.923.001.007-.004.014-.007.021-.011l5.926-3.436 3.948.708c3.226.583 6.32-1.569 6.9-4.8s-1.569-6.32-4.8-6.9z" fill="#fd995b"/><path d="m273.428 260.654c-.037 0-3.839-.082-7.091-1.912-1.602-.901-3.53-1.011-5.224-.296l-4.03 1.7-4.03-1.7c-1.694-.715-3.622-.606-5.224.296-3.218 1.81-6.977 1.909-7.126 1.912-3.267.019-5.909 2.672-5.909 5.944 0 3.283 2.661 5.944 5.944 5.944.589 0 5.164-.069 10.152-2.105l3.883 1.638c1.489.628 3.136.628 4.62 0l3.883-1.638c4.988 2.036 9.564 2.105 10.152 2.105 3.283 0 5.944-2.661 5.944-5.944-.001-3.283-2.662-5.944-5.944-5.944z" fill="#fd995b"/><path d="m393.952 363.92s-4.819-10.074-19.521-10.845c-1.08-.057-2.058-.644-2.646-1.552-1.945-3.005-7.486-9.31-18.978-7.491-1.056.167-2.124-.191-2.883-.945-2.548-2.53-9.361-7.816-20.639-6.23-1.537.216-2.746 1.421-3.038 2.946-2.881 15.033-21.166 96.025-92.197 171.206 7.233.642 14.55.99 21.95.99 55.286 0 106.29-18.32 147.288-49.21-5.167-30.145-9.336-64.966-9.336-98.869z" fill="#e9efff"/><path d="m368.948 448.061c-2.793-2.721-6.721-3.828-10.531-3-12.812 2.784-20.105-4.031-23.779-9.549-2.249-3.378-6.178-5.215-10.223-4.89-19.607 1.578-24.088-16.049-24.088-16.049h-.001c-14.012 29.203-35.043 63.381-66.276 96.439 7.233.642 14.55.99 21.95.99 55.286 0 106.29-18.32 147.288-49.21-.767-4.473-1.507-9.06-2.22-13.721-.001.001-.002.001-.003.002-15.872 10.495-26.68 4.286-32.117-1.012z" fill="#dae2fe"/><path d="m349.639 334.826c-4.134-.298-7.728 2.793-8.036 6.923-1.415 19.003-6.561 57.935-25.133 105.166-8.661 22.026-19.155 43.172-31.425 63.363 6.476-.765 12.877-1.777 19.188-3.037 10.013-17.619 18.756-35.913 26.197-54.837 19.294-49.069 24.653-89.693 26.132-109.541.307-4.131-2.792-7.729-6.923-8.037z" fill="#bec8f7"/><path d="m373.83 346.016c-4.093-.089-7.56 3.217-7.638 7.359-.405 21.877-2.889 66.144-14.968 116.814-2.056 8.627-4.305 17.066-6.73 25.326 6.028-2.336 11.945-4.891 17.731-7.679 1.25-4.672 2.451-9.391 3.59-14.169 12.406-52.043 14.958-97.531 15.375-120.014.077-4.141-3.218-7.56-7.36-7.637z" fill="#bec8f7"/><path d="m254.752 36.526c.07-2.527-1.977-4.611-4.505-4.577-32.29.429-63.036 15.538-83.055 41.631-13.46 17.544-21.009 38.53-21.897 60.302-.122 3.007 2.305 5.497 5.313 5.413 2.997-.084 5.304-2.694 5.001-5.676-.72-7.081-.156-11.48-.132-11.652.005-.037.01-.074.014-.11 2.64-15.456 9.009-30.142 18.764-42.857 18.343-23.908 46.513-37.752 76.101-38.148 2.39-.033 4.331-1.937 4.396-4.326z" fill="#ffb332"/><path d="m235.481 13.152c-.475-.702-1.327-1.036-2.153-.842-11.931 2.792-17.383 16.653-10.493 26.828.476.702 1.327 1.035 2.153.842 11.931-2.793 17.383-16.654 10.493-26.828z" fill="#ffc839"/><path d="m242.804 62.761c-.263.806-.99 1.362-1.837 1.404-12.238.61-21.305-11.206-17.492-22.888.263-.806.99-1.362 1.837-1.404 12.237-.61 21.305 11.206 17.492 22.888z" fill="#ffdd40"/><path d="m220.776 73.885c-.058.968-.702 1.793-1.627 2.084-13.364 4.212-26.81-6.241-25.967-20.268.058-.968.701-1.793 1.627-2.084 13.363-4.212 26.81 6.242 25.967 20.268z" fill="#ffdd40"/><path d="m195.491 53.486c-.829.504-1.873.444-2.639-.15-11.073-8.586-10.137-25.593 1.873-32.887.829-.504 1.873-.444 2.639.15 11.073 8.586 10.137 25.592-1.873 32.887z" fill="#ffc839"/><path d="m202.154 91.142c.261 1.013-.126 2.073-.979 2.679-12.323 8.756-29.594 2.484-33.38-12.196-.262-1.013.126-2.073.979-2.679 12.322-8.757 29.594-2.483 33.38 12.196z" fill="#ffdd40"/><path d="m168.534 79.017c-.684.792-1.775 1.077-2.76.721-14.215-5.143-18.895-22.913-8.984-34.385.684-.792 1.775-1.077 2.76-.721 14.216 5.143 18.894 22.913 8.984 34.385z" fill="#ffc839"/><path d="m189.992 115.81c.558.95.472 2.135-.217 2.996-9.947 12.428-29.249 11.069-37.326-2.701-.558-.951-.472-2.135.217-2.996 9.946-12.427 29.248-11.069 37.326 2.701z" fill="#ffdd40"/><path d="m177.032 105.571c-9.052-2.759-18.611.347-24.367 7.538-.689.86-.774 2.045-.217 2.996 4.298 7.327 12.289 11.682 20.89 11.198-10.065-4.201-8.148-20.943 3.694-21.732z" fill="#ffc839"/><path d="m152.444 113.251c-.464 1-1.486 1.604-2.586 1.528-15.879-1.099-25.757-17.738-19.036-32.22.464-1 1.487-1.604 2.586-1.528 15.88 1.098 25.755 17.74 19.036 32.22z" fill="#ffc839"/><path d="m193.805 78.967c-7.549-5.389-17.559-5.331-25.031-.021-.853.606-1.24 1.666-.979 2.679 2.029 7.868 8.339 14.142 16.761 15.79-7.677-7.28-1.263-20.238 9.249-18.448z" fill="#ffc839"/><g><path d="m203.635 62.414c3.05-3.918 8.495-4.868 12.655-2.4-5.284-6.446-13.785-8.822-21.482-6.396-.925.292-1.569 1.116-1.627 2.084-.467 7.771 3.572 15.153 10.606 18.88-2.827-3.445-3.005-8.504-.152-12.168z" fill="#ffc839"/></g><g><path d="m241.031 48.099c-3.491-5.601-9.563-8.532-15.719-8.225-.847.042-1.574.597-1.837 1.404-2.033 6.228-.493 13.281 4.577 18.105-3.082-7.978 5.54-15.449 12.979-11.284z" fill="#ffc839"/></g><g fill="#ffb332"><path d="m152.945 95.254c-3.373-8.242-11.01-13.508-19.524-14.075-1.1-.073-2.121.533-2.582 1.534-3.803 8.249-2.398 18.031 3.905 24.891-.617-9.631 9.37-16.541 18.201-12.35z"/><path d="m173.745 64.193c-.347-8.984-6.105-16.547-14.273-19.479-.985-.354-2.076-.066-2.758.728-5.906 6.871-6.875 16.589-2.559 24.451.546-10.073 13.617-14.036 19.59-5.7z"/><path d="m204.533 40.76c1.724-7.775-1.277-15.522-7.309-20.175-.768-.593-1.812-.649-2.64-.144-6.805 4.157-10.476 11.891-9.399 19.782 4.271-7.978 15.665-7.412 19.348.537z"/><path d="m236.6 30.525c2.839-5.854 2.145-12.458-1.277-17.484-.477-.701-1.33-1.032-2.155-.837-6.495 1.537-11.687 6.647-13.102 13.484 5.578-5.074 14.576-2.412 16.534 4.837z"/><path d="m257.738 36.686c-.076-2.527 1.966-4.616 4.493-4.588 32.292.348 63.075 15.378 83.16 41.421 13.505 17.51 21.106 38.477 22.049 60.246.13 3.006-2.291 5.503-5.299 5.426-2.997-.077-5.311-2.68-5.015-5.663.702-7.083.126-11.481.103-11.652-.005-.037-.01-.074-.015-.11-2.679-15.449-9.085-30.119-18.873-42.809-18.403-23.861-46.608-37.634-76.198-37.956-2.388-.028-4.333-1.927-4.405-4.315z"/></g><path d="m277.109 13.152c.476-.702 1.327-1.036 2.153-.842 11.931 2.792 17.383 16.653 10.493 26.828-.476.702-1.327 1.035-2.153.842-11.931-2.793-17.383-16.654-10.493-26.828z" fill="#ffdd40"/><path d="m269.786 62.761c.263.806.99 1.362 1.837 1.404 12.238.61 21.305-11.206 17.492-22.888-.263-.806-.989-1.362-1.837-1.404-12.238-.61-21.305 11.206-17.492 22.888z" fill="#ffc839"/><path d="m291.813 73.885c.058.968.702 1.793 1.627 2.084 13.364 4.212 26.81-6.241 25.967-20.268-.058-.968-.701-1.793-1.627-2.084-13.363-4.212-26.809 6.242-25.967 20.268z" fill="#ffc839"/><path d="m317.098 53.486c.829.504 1.873.444 2.639-.15 11.073-8.586 10.137-25.593-1.873-32.887-.829-.504-1.873-.444-2.639.15-11.072 8.586-10.136 25.592 1.873 32.887z" fill="#ffdd40"/><path d="m310.435 91.142c-.261 1.013.126 2.073.979 2.679 12.323 8.756 29.595 2.484 33.381-12.196.261-1.013-.126-2.073-.979-2.679-12.323-8.757-29.594-2.483-33.381 12.196z" fill="#ffc839"/><path d="m344.055 79.017c.684.792 1.776 1.077 2.76.721 14.215-5.143 18.895-22.913 8.984-34.385-.684-.792-1.775-1.077-2.759-.721-14.216 5.143-18.895 22.913-8.985 34.385z" fill="#ffdd40"/><path d="m322.598 115.81c-.558.95-.472 2.135.217 2.996 9.947 12.428 29.249 11.069 37.326-2.701.558-.951.472-2.135-.217-2.996-9.947-12.427-29.249-11.069-37.326 2.701z" fill="#ffc839"/><path d="m360.146 113.251c.464 1 1.486 1.604 2.586 1.528 15.879-1.099 25.757-17.738 19.036-32.22-.464-1-1.486-1.604-2.586-1.528-15.881 1.098-25.755 17.74-19.036 32.22z" fill="#ffdd40"/><path d="m288.325 178.633c0-1.684.315-3.285.877-4.741-2.188 1.074-3.955 2.29-5.213 3.316-2.935 2.394-8.038 5.43-10.832 7.035-.529.303-.313 1.11.297 1.11h.276c2.593 0 5.172.404 7.634 1.215 4.271 1.407 8.358 2.107 12.137 2.337-3.105-2.128-5.176-5.931-5.176-10.272z" fill="#e9efff"/><path d="m323.08 181.266c-5.103-4.787-10.009-7.55-14.545-8.948 1.02 1.838 1.61 4 1.61 6.315 0 3.784-1.574 7.158-4.034 9.373 3.714-.768 6.613-1.835 8.408-2.652 3.683-1.677 6.468-2.359 8.124-2.636.69-.116.947-.974.437-1.452z" fill="#e9efff"/><path d="m288.517 174.24c-.622 1.421-.97 2.99-.97 4.641 0 4.272 2.314 8.002 5.754 10.012 4.962.324 9.401-.164 13.038-.935 2.672-2.123 4.388-5.399 4.388-9.077 0-2.41-.736-4.648-1.995-6.502-8.311-2.629-15.399-.667-20.215 1.861z" fill="#7f3822"/><circle cx="299.018" cy="179.609" fill="#6d2b19" r="4.442"/><path d="m332.898 164.813c-.664-4.364-3.308-14.507-13.628-16.853-10.42-2.368-32.392 2.096-41.287 4.107-2.37.536-4.248 2.338-4.884 4.683l-1.833 6.758c-.156.574.373 1.098.945.938 6.744-1.892 37.799-10.29 47.259-7.256 7.214 2.314 10.919 5.921 12.557 8.001.312.396.947.119.871-.378z" fill="#7f3822"/><path d="m223.675 178.633c0-1.684-.315-3.285-.877-4.741 2.188 1.074 3.955 2.29 5.213 3.316 2.935 2.394 8.039 5.43 10.832 7.035.529.303.313 1.11-.297 1.11h-.276c-2.593 0-5.172.404-7.634 1.215-4.271 1.407-8.358 2.107-12.137 2.337 3.106-2.128 5.176-5.931 5.176-10.272z" fill="#e9efff"/><path d="m188.92 181.266c5.103-4.787 10.009-7.55 14.545-8.948-1.02 1.838-1.61 4-1.61 6.315 0 3.784 1.574 7.158 4.034 9.373-3.714-.768-6.613-1.835-8.408-2.652-3.683-1.677-6.468-2.359-8.124-2.636-.689-.116-.947-.974-.437-1.452z" fill="#e9efff"/><path d="m223.483 174.24c.622 1.421.97 2.99.97 4.641 0 4.272-2.313 8.002-5.754 10.012-4.962.324-9.401-.164-13.038-.935-2.672-2.123-4.388-5.399-4.388-9.077 0-2.41.736-4.648 1.995-6.502 8.312-2.629 15.399-.667 20.215 1.861z" fill="#7f3822"/><path d="m208.54 179.609c0 2.453 1.989 4.442 4.442 4.442s4.442-1.989 4.442-4.442-1.989-4.442-4.442-4.442c-2.454 0-4.442 1.989-4.442 4.442z" fill="#6d2b19"/><path d="m179.102 164.813c.664-4.364 3.308-14.507 13.628-16.853 10.42-2.368 32.392 2.096 41.287 4.107 2.37.536 4.248 2.338 4.884 4.683l1.833 6.758c.156.574-.373 1.098-.945.938-6.744-1.892-37.799-10.29-47.259-7.256-7.214 2.314-10.919 5.921-12.557 8.001-.311.396-.946.119-.871-.378z" fill="#7f3822"/><g><path d="m295.309 148.767c-6.911 1.045-13.396 2.412-17.326 3.301-2.37.536-4.248 2.338-4.884 4.683l-1.833 6.758c-.155.574.373 1.098.945.938 3.739-1.049 14.951-4.096 25.814-6.088-4.467-.862-6.104-6.473-2.716-9.592z" fill="#6d2b19"/></g><g><path d="m210.376 147.932c-6.708-.748-13.22-.977-17.646.029-10.32 2.346-12.963 12.489-13.628 16.853-.076.497.559.774.87.379 1.638-2.081 5.343-5.687 12.557-8.001 3.6-1.155 10.33-.652 17.655.516-3.81-2.212-3.687-7.727.192-9.776z" fill="#6d2b19"/></g><path d="m290.555 20.823c-.455 7.841-9.566 11.943-15.737 7.096 1.7 5.717 6.274 10.537 12.783 12.06.826.193 1.677-.14 2.153-.842 3.942-5.82 3.839-12.843.801-18.314z" fill="#ffc839"/><path d="m275.279 43.837c-5.253 4.348-7.863 11.661-5.493 18.924.263.806.99 1.362 1.837 1.404 7.759.387 14.238-4.224 16.973-10.626-6.602 2.625-13.791-2.484-13.317-9.702z" fill="#ffb332"/><path d="m303.823 54.331c-7.312 3.184-12.545 10.645-12.01 19.554.058.968.702 1.793 1.627 2.084 8.288 2.612 16.605-.42 21.529-6.443-9.308 3.655-17.375-7.487-11.146-15.195z" fill="#ffb332"/><path d="m326.704 31.979c-3.085 9.028-16.041 8.69-18.608-.534-2.051 8.093 1.038 17.202 9.003 22.04.829.504 1.873.444 2.639-.15 6.864-5.323 9.109-13.881 6.966-21.356z" fill="#ffc839"/><path d="m343.326 51.675c-5.981 7.724-6.355 19.141.729 27.342.684.792 1.776 1.077 2.76.721 9.186-3.324 14.382-11.921 14.24-20.684-5.824 9.14-20.136 3.293-17.729-7.379z" fill="#ffc839"/><path d="m330.813 74.954c-9.155.234-17.827 6.299-20.378 16.188-.261 1.013.126 2.073.979 2.679 8.496 6.037 19.342 4.928 26.501-1.152-10.334 1.83-15.875-11.877-7.102-17.715z" fill="#ffb332"/><path d="m341.369 115.958c0-5.246 4.146-9.512 9.338-9.731-9.946-4.01-22.116-.633-28.109 9.584-.558.95-.472 2.135.217 2.996 6.71 8.384 17.675 10.485 26.582 6.742-4.562-.816-8.028-4.795-8.028-9.591z" fill="#ffb332"/><path d="m376.246 99.393c-7.333 0-12.009-7.791-8.65-14.244-8.489 6.038-12.308 17.633-7.45 28.103.464 1 1.486 1.604 2.586 1.528 10.969-.759 19.071-8.935 20.819-18.692-1.787 2.022-4.393 3.305-7.305 3.305z" fill="#ffc839"/><path d="m407.36 74.34c4.201 23.21 8.533 63.96-4.072 96.791-18.763 48.869-62.763 121.536-26.763 132.869 30.305 9.54 82.338 19.812 106.793 54.529 11.4-28.277 17.68-59.167 17.68-91.527 0-78.179-36.618-147.804-93.638-192.662z" fill="#7255ce"/><path d="m104.64 74.34c-4.201 23.21-8.533 63.96 4.072 96.791 18.763 48.869 62.763 121.536 26.763 132.869-30.305 9.54-82.338 19.812-106.793 54.529-11.4-28.277-17.68-59.167-17.68-91.527 0-78.179 36.618-147.804 93.638-192.662z" fill="#7255ce"/></g></svg>