<svg id="Layer_1" enable-background="new 0 0 512 512" height="512" viewBox="0 0 512 512" width="512" xmlns="http://www.w3.org/2000/svg"><g><path d="m256 22.004c-135.309 0-244.998 109.689-244.998 244.998 0 110.87 73.651 204.521 174.69 234.741l32.3 7.318c12.387 1.93 25.08 2.939 38.008 2.939 12.929 0 25.621-1.009 38.008-2.938l32.299-7.318c101.04-30.219 174.691-123.871 174.691-234.741 0-135.31-109.689-244.999-244.998-244.999z" fill="#e80054"/><path d="m294.008 509.062c11.029-1.718 21.81-4.181 32.3-7.318l-53.138-92.038-18.262 31.632z" fill="#dae2fe"/><path d="m273.169 409.705-18.262 31.632 15.794 27.356c5.078-23.939 27.307-15.966 27.307-15.966z" fill="#bec8f7"/><path d="m249.73 369.108-27.393 15.816 16.494 28.568 18.262-31.632z" fill="#bec8f7"/><path d="m209.944 336.811h31.631v44.818h-31.631z" fill="#abbaef" transform="matrix(.866 -.5 .5 .866 -149.364 161.005)"/><path d="m217.992 509.062 71.989-124.688-27.394-15.816-76.895 133.185c10.491 3.138 21.271 5.601 32.3 7.319z" fill="#e9efff"/><path d="m262.587 368.558-47.988 83.118c23.309-4.207 26.7 17.017 26.7 17.017l48.682-84.319z" fill="#dae2fe"/><path d="m263.832 343.404h44.818v31.631h-44.818z" fill="#bec8f7" transform="matrix(.5 -.866 .866 .5 -167.973 427.502)"/><g><path d="m352.174 245.021c6.223 3.593 10.289 9.932 12.198 17.89l23.997-41.564c-.094-.052-.191-.092-.285-.146l-33.281-19.215c-.078-.045-.148-.099-.225-.145l-23.996 41.562c7.846-2.326 15.369-1.975 21.592 1.618z" fill="#ffc839"/></g><path d="m315.943 307.775c-6.223-3.593-10.289-9.932-12.198-17.89l-20.452 35.425c-2.081 3.604-.846 8.213 2.758 10.294l20.738 11.973c3.604 2.081 8.213.846 10.294-2.758l20.453-35.425c-7.848 2.325-15.371 1.974-21.593-1.619z" fill="#ffc839"/><g><path d="m164.265 81.915c-.679 0-1.37-.074-2.06-.228-5.105-1.133-8.325-6.189-7.191-11.293l3.83-17.252c1.132-5.105 6.186-8.33 11.293-7.191 5.105 1.133 8.324 6.189 7.19 11.293l-3.83 17.253c-.977 4.414-4.89 7.418-9.232 7.418z" fill="#ffdd40"/></g><g><path d="m224.133 135.503c-.679 0-1.37-.074-2.06-.228l-29.986-6.657c-5.105-1.133-8.325-6.189-7.191-11.293 1.133-5.106 6.192-8.325 11.293-7.19l29.986 6.657c5.105 1.133 8.325 6.19 7.19 11.293-.977 4.414-4.89 7.418-9.232 7.418z" fill="#ffdd40"/></g><g><path d="m188.927 99.191c-3.129 0-6.19-1.55-7.994-4.384-2.808-4.411-1.51-10.262 2.901-13.07l34.828-22.175c4.412-2.808 10.264-1.509 13.07 2.901 2.808 4.411 1.51 10.262-2.9 13.07l-34.828 22.175c-1.577 1.004-3.337 1.483-5.077 1.483z" fill="#ffdd40"/></g><path d="m460.188 165.724c.007-.029.015-.058.022-.088l38.411-149.654c1.426-5.554-1.023-11.377-5.988-14.244l-121.89 211.119 16.618 9.594c5.863 3.385 13.11 2.306 17.745-2.242 3.054-2.997 6.019-6.085 9.234-8.91l38.295-33.636c3.612-3.171 6.346-7.286 7.553-11.939z" fill="#ffdd40"/><path d="m460.188 165.724c-29.957 7.562-41.566-5.508-45.978-15.061-1.009-2.184-2.59-3.982-4.509-5.283l-38.958 67.477 16.618 9.595c5.863 3.385 13.11 2.306 17.746-2.243 3.054-2.997 6.019-6.085 9.234-8.91l38.295-33.636c3.612-3.171 6.345-7.286 7.552-11.939z" fill="#ffc839"/><path d="m477.258 3.648-110.399 108.092c-.022.021-.043.042-.065.063-3.433 3.379-5.635 7.814-6.578 12.539l-9.969 49.949c-.839 4.202-2.035 8.318-3.102 12.469-1.615 6.285 1.075 13.094 6.934 16.477l16.618 9.594 121.891-211.119c-4.966-2.867-11.233-2.075-15.33 1.936z" fill="#ffc839"/><path d="m402.006 143.072c-30.533.427-35.147-31.331-35.147-31.331-.022.02-.043.041-.065.062-3.433 3.379-5.635 7.814-6.578 12.539l-9.968 49.949c-.839 4.202-2.036 8.318-3.102 12.469-1.615 6.285 1.075 13.094 6.934 16.477l16.618 9.595 38.959-67.48c-2.216-1.491-4.88-2.319-7.651-2.28z" fill="#ffb332"/><ellipse cx="334.273" cy="276.026" fill="#ffdd40" rx="38.692" ry="36.222" transform="matrix(.5 -.866 .866 .5 -71.909 427.504)"/><ellipse cx="346.291" cy="268.758" fill="#fcea9d" rx="15.709" ry="15.709" transform="matrix(.23 -.973 .973 .23 5.161 544.038)"/><g><path d="m159.872 245.021c6.223-3.593 13.745-3.945 21.592-1.619l-23.997-41.564c-.092.056-.175.12-.269.173l-33.281 19.215c-.078.045-.159.079-.238.122l23.996 41.562c1.908-7.957 5.974-14.296 12.197-17.889z" fill="#ffc839"/></g><path d="m196.103 307.775c-6.223 3.593-13.745 3.944-21.592 1.619l20.452 35.425c2.081 3.604 6.689 4.839 10.294 2.758l20.738-11.973c3.604-2.081 4.839-6.69 2.758-10.294l-20.452-35.425c-1.909 7.958-5.976 14.297-12.198 17.89z" fill="#ffc839"/><path d="m145.206 111.829c-.022-.021-.043-.042-.065-.063l-110.399-108.092c-4.097-4.011-10.364-4.803-15.33-1.936l121.89 211.119 16.618-9.594c5.863-3.385 8.552-10.201 6.931-16.489-1.069-4.144-2.261-8.255-3.099-12.452l-9.982-49.983c-.941-4.713-3.138-9.138-6.564-12.51z" fill="#ffdd40"/><path d="m145.206 111.829c-8.43 29.724-25.553 33.244-36.032 32.287-2.396-.218-4.744.252-6.83 1.264l38.958 67.477 16.618-9.594c5.863-3.385 8.552-10.201 6.931-16.489-1.069-4.144-2.261-8.255-3.099-12.452l-9.982-49.982c-.941-4.714-3.138-9.139-6.564-12.511z" fill="#ffc839"/><path d="m13.379 16.008 38.411 149.655c.007.029.015.059.022.088 1.21 4.663 3.95 8.787 7.57 11.966l38.272 33.607c3.22 2.827 6.186 5.922 9.247 8.921 4.636 4.541 11.877 5.617 17.736 2.234l16.618-9.594-121.888-211.12c-4.965 2.866-7.413 8.69-5.988 14.243z" fill="#ffc839"/><path d="m96.497 150.89c-14.897 26.656-44.707 14.773-44.707 14.773l.021.087c1.21 4.663 3.95 8.787 7.57 11.966l38.273 33.607c3.22 2.828 6.186 5.922 9.247 8.921 4.636 4.541 11.877 5.616 17.736 2.233l16.618-9.594-38.96-67.48c-2.397 1.175-4.446 3.068-5.798 5.487z" fill="#ffb332"/><ellipse cx="177.773" cy="276.026" fill="#ffdd40" rx="36.222" ry="38.692" transform="matrix(.866 -.5 .5 .866 -114.196 125.867)"/><ellipse cx="185.692" cy="268.758" fill="#fcea9d" rx="15.709" ry="15.709" transform="matrix(.23 -.973 .973 .23 -118.539 387.735)"/><g fill="#ff4155"><path d="m500.998 267.002c0-11.185-.765-22.189-2.216-32.976-27.706-5.738-67.875-4.101-91.757 42-35.406 68.343-94.079 104.996-69.49 152.676 12.042 23.349 28.146 39.321 45.112 48.035 70.931-42.916 118.351-120.779 118.351-209.735z"/><path d="m11.002 267.002c0-11.185.765-22.189 2.216-32.976 27.705-5.738 67.874-4.101 91.757 42 35.406 68.343 94.079 104.996 69.49 152.676-12.041 23.349-28.145 39.321-45.112 48.035-70.931-42.916-118.351-120.779-118.351-209.735z"/></g></g></svg>