<svg id="Layer_1" enable-background="new 0 0 512 512" height="512" viewBox="0 0 512 512" width="512" xmlns="http://www.w3.org/2000/svg"><g><path d="m244.998 16.503c-135.309 0-244.998 109.689-244.998 244.998 0 2.394.043 4.777.112 7.155l157.052 221.61c27.268 10.477 56.877 16.233 87.834 16.233 135.309 0 244.998-109.689 244.998-244.998s-109.689-244.998-244.998-244.998z" fill="#ff4155"/><path d="m455.94 197.772.675-3.199h-192.169l-20.423 27.27c-.905 1.21-2.227 2.005-3.722 2.237l-25.635 3.98c-3.15.489-3.364 4.958-.28 5.75l16.943 4.357c1.498.386 2.228 2.091 1.466 3.43-11.807 20.752-31.468 47.244-58.079 55.601-13.806 4.337-23.914 1.933-26.335 1.226-11.395-22.145-8.528-43.697-6.75-51.985.245-1.144 1.411-1.865 2.57-1.529l5.82 1.689c2.531.735 4.825-1.706 3.949-4.18l-4.201-11.908c-.579-1.64-.713-3.427-.387-5.168 1.965-10.484 5.425-21.12 9.24-30.772h-101.272c-3.869 0-7.491 1.902-9.687 5.088l-47.552 68.997c1.543 53.802 20.434 103.253 51.272 142.968.433-.337.858-.677 1.306-1.007 8.363-6.166 18.408-10.12 29.05-11.432l1.393-.172v-31.008h-1.587c-7.002 0-12.698-5.696-12.698-12.698 0-7.001 5.696-12.697 12.698-12.697h70.411c7.002 0 12.698 5.696 12.698 12.697s-5.696 12.698-12.698 12.698h-1.587v31.004l1.395.17c10.09 1.23 19.655 4.841 27.661 10.442 12.867 9.001 19.952 20.464 19.952 32.277 0 11.034-6.184 21.632-17.171 30.212h169.546c25.252 0 44.049-15.694 50.275-34.814l3.31-7.711-.17-2.369c.994-11.335-2.404-22.337-9.829-31.576-6.436-8.009-19.876-15.072-30.15-15.026-8.434.038-16.431 2.87-22.932 8.059.864-1.45 1.88-3.157 3.076-5.167z" fill="#f9efdc"/><path d="m455.94 197.771.675-3.199h-83.941c10.257 2.159 24.82 8.979 13.038 30.517-17.141 31.333-131.955 217.596-131.955 217.596s-7.718 20.571-28.602 29.425h126.599c25.252 0 44.049-15.693 50.275-34.814l3.31-7.711-.17-2.369c.994-11.335-2.404-22.337-9.829-31.577-6.436-8.009-19.876-15.072-30.15-15.026-8.434.038-16.431 2.871-22.932 8.059.864-1.45 1.88-3.157 3.076-5.167z" fill="#efe1cb"/><path d="m391.961 390.083c-14.084-14.084-38.018-11.933-52.102 2.151-11.267 11.267-11.267 29.535 0 40.802 8.507 8.506 22.001 8.985 31.068 1.436.988-.822 1.78-1.858 2.346-3.011l19.788-40.234c-.36-.384-.723-.767-1.1-1.144z" fill="#e8d0b1"/><g><path d="m497.499 158.897c-9.367-2.967-19.56.958-25.059 9.101-131.21 220.33-135.828 228.085-135.951 228.291l-.001.002.001-.002-.002.004-.001.001h.001l-.001.001-.001.002-.001.002c.984-1.429 2.104-2.793 3.375-4.064 14.084-14.084 36.918-14.084 51.002 0 13.029 13.029 15.908 29.634 11.392 44.326l108.037-248.099c4.323-9.683.587-25.325-12.791-29.565z" fill="#fcf9f0"/></g><g><path d="m344.78 272.681c-9.351 0-14.466-2.151-18.575-3.88-3.505-1.474-6.273-2.639-12.421-2.639-6.146 0-8.914 1.165-12.418 2.639-4.11 1.729-9.224 3.88-18.573 3.88-9.35 0-14.465-2.151-18.574-3.881-2.668-1.122-4.776-2.009-8.201-2.413-4.352-.513-7.466-4.457-6.952-8.81s4.457-7.462 8.81-6.952c5.653.666 9.291 2.196 12.498 3.545 3.505 1.475 6.272 2.639 12.42 2.639 6.146 0 8.915-1.165 12.419-2.639 4.109-1.729 9.224-3.88 18.573-3.88 9.351 0 14.466 2.151 18.575 3.88 3.505 1.475 6.273 2.639 12.421 2.639 6.147 0 8.916-1.165 12.421-2.639 4.11-1.729 9.225-3.88 18.575-3.88 4.383 0 7.936 3.553 7.936 7.936s-3.553 7.936-7.936 7.936c-6.147 0-8.916 1.165-12.421 2.639-4.112 1.729-9.227 3.88-18.577 3.88z" fill="#e8d0b1"/></g><g><path d="m314.748 321.222c-9.351 0-14.466-2.151-18.575-3.88-3.504-1.475-6.272-2.639-12.42-2.639-6.146 0-8.915 1.165-12.419 2.639-4.109 1.729-9.224 3.88-18.573 3.88-9.35 0-14.465-2.151-18.574-3.881-3.504-1.474-6.272-2.638-12.419-2.638-4.383 0-7.936-3.553-7.936-7.936s3.553-7.936 7.936-7.936c9.35 0 14.464 2.151 18.573 3.88 3.504 1.475 6.272 2.639 12.42 2.639 6.146 0 8.914-1.165 12.418-2.639 4.11-1.729 9.224-3.88 18.573-3.88 9.35 0 14.465 2.151 18.574 3.88 3.505 1.475 6.272 2.639 12.421 2.639 6.147 0 8.915-1.165 12.421-2.639 4.11-1.729 9.225-3.88 18.575-3.88 4.383 0 7.936 3.553 7.936 7.936s-3.552 7.936-7.936 7.936c-6.147 0-8.916 1.165-12.421 2.639-4.108 1.729-9.223 3.88-18.574 3.88z" fill="#e8d0b1"/></g><g><path d="m284.717 369.763c-9.351 0-14.466-2.151-18.575-3.88-3.505-1.475-6.273-2.639-12.421-2.639-6.146 0-8.915 1.165-12.419 2.639-4.11 1.729-9.223 3.88-18.573 3.88-9.349 0-14.464-2.151-18.573-3.88-2.454-1.032-4.393-1.848-7.31-2.293-4.333-.66-7.31-4.708-6.648-9.042.66-4.333 4.712-7.317 9.042-6.648 4.863.741 8.161 2.129 11.071 3.353 3.504 1.474 6.272 2.638 12.419 2.638 6.146 0 8.915-1.165 12.419-2.639 4.109-1.729 9.223-3.88 18.573-3.88 9.351 0 14.466 2.151 18.575 3.88 3.505 1.475 6.273 2.639 12.421 2.639 6.147 0 8.916-1.165 12.421-2.639 4.11-1.729 9.225-3.88 18.575-3.88 4.383 0 7.936 3.553 7.936 7.936s-3.553 7.936-7.936 7.936c-6.147 0-8.916 1.165-12.421 2.639-4.11 1.729-9.225 3.88-18.576 3.88z" fill="#e8d0b1"/></g><path d="m333.038 13.142c-1.059-4.597-5.225-7.808-9.94-7.635-19.2.704-68.181 7.066-92.683 52.136-1.204 2.215-1.708 4.75-1.47 7.26l2.51 26.497c.229 2.421-2.823 3.668-4.354 1.778l-9.791-12.082c-1.905-2.351-5.602-1.943-6.95.765-5.746 11.538-18.732 38.139-26.873 58.902-.587 1.497-.648 3.15-.19 4.692l5.824 19.632c.506 1.706-1.56 2.993-2.868 1.786l-7.364-6.792c-1.842-1.699-4.783-1.238-6.011.947-5.772 10.27-20.107 37.618-25.057 64.025-.375 2.002-.228 4.067.45 5.988l4.202 11.907c.446 1.263-.724 2.502-2.01 2.128l-5.82-1.69c-2.025-.588-4.122.659-4.565 2.72-1.852 8.632-4.774 30.854 7.196 53.631 0 0 44.829 16.587 86.9-57.356 1.28-2.251.057-5.107-2.451-5.752l-16.943-4.357c-1.423-.366-1.323-2.419.129-2.645l25.634-3.98c1.895-.294 3.6-1.319 4.75-2.854l37.868-50.564c1.683-2.248.289-5.474-2.501-5.789l-17.601-1.987c-2.028-.229-2.258-3.085-.294-3.636l30.829-8.647c2.823-.792 5.318-2.448 7.157-4.73 11.091-13.758 48.019-65.972 32.287-134.298z" fill="#ffdd40"/><path d="m228.363 176.91-7.89-28.348c-27.432 4.636-29.858-24.826-29.858-24.826-2.561 5.825-5.009 11.623-7.127 17.026-.587 1.497-.648 3.15-.19 4.692l5.824 19.631c.506 1.706-1.56 2.993-2.868 1.786l-7.364-6.792c-1.842-1.7-4.783-1.238-6.011.947-5.772 10.271-20.107 37.618-25.057 64.025-.375 2.003-.229 4.067.449 5.988l4.202 11.907c.446 1.263-.724 2.501-2.01 2.128l-5.82-1.689c-2.025-.588-4.122.659-4.565 2.72-1.852 8.632-4.774 30.854 7.196 53.631 0 0 44.829 16.587 86.9-57.355 1.28-2.251.057-5.107-2.451-5.752l-16.943-4.357c-1.423-.366-1.322-2.419.129-2.645l25.634-3.98c1.895-.294 3.6-1.319 4.75-2.854l19.868-26.53c-33.596 7.132-36.798-19.353-36.798-19.353z" fill="#ffc839"/><g><path d="m283.982 67.005c-4.913-3.359-11.626-2.015-14.855 2.984-41.447 64.181-102.126 164.885-150.739 273.151h23.231c47.373-103.745 105.337-199.811 145.284-261.666 3.112-4.819 1.815-11.232-2.921-14.469z" fill="#ffb332"/></g><path d="m89.671 398.162h54.202c2.709 0 5.409.173 8.083.499v-30.127h-70.41v30.133c2.687-.33 5.4-.505 8.125-.505z" fill="#a05838"/><g><path d="m115.213 368.535h-33.667v30.133c2.687-.331 5.4-.505 8.125-.505h25.541v-29.628z" fill="#934a2e"/></g><path d="m180.336 408.321c-10.655-7.454-23.459-11.217-36.463-11.217h-54.202c-13.61 0-26.968 4.158-37.923 12.235-.455.335-.889.681-1.33 1.024 27.299 35.629 64.156 63.539 106.746 79.902 1.8-2.726 4.377-4.933 7.512-6.255 21.926-9.246 36.291-24.655 36.291-42.112 0-12.848-7.781-24.588-20.631-33.577z" fill="#934a2e"/><g><path d="m91.418 435.705c0-14.753 8.883-28.238 23.563-38.601h-25.31c-13.61 0-26.968 4.157-37.923 12.235-.455.336-.889.682-1.331 1.024 13.753 17.95 29.935 33.938 48.052 47.48-4.541-6.838-7.051-14.308-7.051-22.138z" fill="#7f3822"/></g><path d="m118.388 343.14h23.232c27.229-59.631 57.953-116.709 86.748-166.227-.001-.001-.003-.001-.004-.002-16.498-5.498-7.937-28.223-7.892-28.342-33.355 56.228-70.298 123.78-102.084 194.571z" fill="#ff9100"/><g><path d="m151.956 369.593h-70.41c-7.889 0-14.285-6.395-14.285-14.285 0-7.889 6.395-14.285 14.285-14.285h70.41c7.889 0 14.285 6.395 14.285 14.285s-6.395 14.285-14.285 14.285z" fill="#b76c4e"/></g><path d="m102.467 355.308c0-7.889 6.395-14.285 14.285-14.285h-35.206c-7.889 0-14.285 6.396-14.285 14.285 0 7.89 6.395 14.285 14.285 14.285h35.205c-7.889 0-14.284-6.395-14.284-14.285z" fill="#a05838"/><path d="m402.253 436.56 60.671-139.325c-10.314-42.854-51.63-26.559-51.63-26.559-71.633 120.288-74.705 125.446-74.805 125.613l-.002.004-.001.001h.001-.001l-.001.003-.001.001c.984-1.429 2.104-2.793 3.375-4.064 14.084-14.083 36.918-14.083 51.002 0 13.029 13.029 15.909 29.634 11.392 44.326z" fill="#f9efdc"/></g></svg>