<svg height="512pt" viewBox="-6 0 512 512.00016" width="512pt" xmlns="http://www.w3.org/2000/svg"><path d="m245 22c-135.308594 0-245 109.691406-245 245 0 28.796875 4.984375 56.429688 14.109375 82.09375l42.523437 74.5625c44.941407 53.980469 112.636719 88.34375 188.367188 88.34375 135.308594 0 245-109.691406 245-245s-109.691406-245-245-245zm0 0" fill="#122894"/><path d="m417.074219 146.058594c-1.726563-.898438-2.808594-2.675782-2.808594-4.621094 0-7.769531-6.480469-14.023438-14.328125-13.652344-7.351562.34375-13.007812 6.675782-13.007812 14.035156v198.191407c0 4.480469-4.078126 7.828125-8.484376 6.996093-9.796874-1.855468-20.789062-1.511718-31.890624 1.460938-30.671876 8.21875-50.574219 33.386719-44.457032 56.214844 6.117188 22.832031 35.9375 34.675781 66.605469 26.457031 29.472656-7.894531 45.5625-29.875 45.5625-47.085937v-164.042969c0-1.648438 1.566406-2.847657 3.160156-2.433594 46.417969 12.042969 61.921875 38.183594 67.03125 52.785156 1.363281 3.890625 6.660157 4.324219 8.621094.699219 33.339844-61.5625-47.558594-110.242188-76.003906-125.003906zm0 0" fill="#f9508d"/><path d="m234.796875 81.066406c-1.09375.050782-2.144531.25-3.148437.546875v-.011719l-164.820313 46.625v.007813c-5.925781 1.601563-10.183594 7.203125-10.183594 13.585937v198.191407c0 4.480469-4.078125 7.828125-8.480469 6.996093-9.796874-1.855468-20.789062-1.511718-31.894531 1.460938-.726562.195312-1.445312.410156-2.160156.625 9.757813 27.433594 24.257813 52.617188 42.523437 74.558594 17.8125-10.300782 27.347657-26.355469 27.347657-39.597656v-181.265626c0-1.582031 1.050781-2.972656 2.574219-3.402343l130.738281-36.984375c2.253906-.636719 4.492187 1.058594 4.492187 3.402344v127.488281c0 4.480469-4.074218 7.832031-8.480468 6.996093-9.796876-1.855468-20.789063-1.511718-31.894532 1.464844-30.667968 8.21875-50.570312 33.386719-44.453125 56.214844 6.117188 22.828125 35.9375 34.671875 66.605469 26.453125 29.46875-7.894531 45.5625-29.871094 45.5625-47.082031v-242.621094c0-7.769531-6.480469-14.023438-14.328125-13.652344zm0 0" fill="#ffd03d"/><path d="m66.828125 128.226562v.007813c-5.925781 1.601563-10.183594 7.203125-10.183594 13.585937v198.191407c0 4.480469-4.078125 7.828125-8.480469 6.996093-9.796874-1.855468-20.789062-1.511718-31.894531 1.460938-.726562.195312-1.445312.410156-2.160156.625 9.757813 27.433594 24.257813 52.617188 42.523437 74.558594 17.8125-10.300782 27.347657-26.355469 27.347657-39.597656 0-37.558594 0-145.855469 0-181.265626 0-1.582031 1.050781-2.972656 2.574219-3.402343l25.949218-7.339844v-66.851563c0-4.71875 2.332032-9.003906 5.9375-11.570312zm0 0" fill="#f3ba2e"/><path d="m337.859375 70.273438.386719 20.058593c.054687 2.960938 2.503906 5.3125 5.460937 5.257813l20.058594-.386719c2.960937-.058594 5.3125-2.503906 5.253906-5.464844l-.382812-20.054687c-.058594-2.960938-2.503907-5.3125-5.464844-5.257813l-20.058594.386719c-2.957031.058594-5.3125 2.503906-5.253906 5.460938zm0 0" fill="#37c47a"/><path d="m353.824219 90.246094-.390625-20.386719c-.046875-2.503906 1.601562-4.640625 3.894531-5.320313l-14.210937.273438c-2.960938.058594-5.3125 2.503906-5.257813 5.460938l.386719 20.058593c.058594 2.960938 2.503906 5.3125 5.464844 5.257813l13.890624-.269532c-2.152343-.695312-3.730468-2.6875-3.777343-5.074218zm0 0" fill="#1aaa81"/><path d="m256.953125 52.054688c-5.980469 0-10.59375-4.894532-10.59375-10.582032 0-6.6875 6.167969-11.695312 12.667969-10.394531 5.054687 1.027344 8.53125 5.433594 8.53125 10.394531 0 5.757813-4.679688 10.582032-10.605469 10.582032zm0 0" fill="#ffd03d"/><path d="m291.683594 9.574219c-5.023438 11.132812.671875 19.578125 8.949218 28.570312 5.671876 6.167969 7.867188 11.757813 8.714844 15.121094 2.527344-2.378906 7.386719-5.910156 15.488282-8.050781 11.8125-3.125 21.15625-7.179688 22.917968-19.265625 1.511719-10.394531-9.035156-24.753907-24.148437-14.308594-1.359375.941406-3.230469.386719-3.871094-1.128906-7.101563-16.90625-23.71875-10.542969-28.050781-.9375zm0 0" fill="#f9508d"/><path d="m309.472656 12.699219c1.367188-3.03125 4.238282-5.664063 7.578125-6.960938-7.953125-10.667969-21.515625-4.707031-25.367187 3.835938-5.019532 11.132812.671875 19.578125 8.949218 28.570312 5.675782 6.167969 7.871094 11.757813 8.71875 15.125 2.332032-2.199219 6.660157-5.375 13.691407-7.539062-4.703125-11.984375-20.128907-18.488281-13.570313-33.03125zm0 0" fill="#f23c79"/><g fill="#406bcc"><path d="m484.953125 135.304688h-41.203125c-4.386719 0-7.945312-3.558594-7.945312-7.945313 0-4.390625 3.558593-7.945313 7.945312-7.945313h41.203125c4.386719 0 7.945313 3.554688 7.945313 7.945313 0 4.386719-3.558594 7.945313-7.945313 7.945313zm0 0"/><path d="m353.710938 135.304688h-73.449219c-4.386719 0-7.945313-3.558594-7.945313-7.945313 0-4.390625 3.558594-7.945313 7.945313-7.945313h73.449219c4.386718 0 7.941406 3.554688 7.941406 7.945313 0 4.386719-3.554688 7.945313-7.941406 7.945313zm0 0"/><path d="m353.710938 202.046875h-73.449219c-4.386719 0-7.945313-3.554687-7.945313-7.945313 0-4.386718 3.558594-7.945312 7.945313-7.945312h73.449219c4.386718 0 7.941406 3.558594 7.941406 7.945312 0 4.390626-3.554688 7.945313-7.941406 7.945313zm0 0"/><path d="m27.09375 202.046875c4.386719 0 7.941406-3.554687 7.941406-7.945313 0-4.386718-3.554687-7.945312-7.941406-7.945312h-13.421875c-1.824219 5.222656-3.476563 10.519531-4.949219 15.890625zm0 0"/><path d="m447.984375 268.792969h-6.710937c-4.386719 0-7.941407-3.554688-7.941407-7.945313 0-4.386718 3.554688-7.945312 7.941407-7.945312h6.710937c4.386719 0 7.945313 3.558594 7.945313 7.945312 0 4.386719-3.558594 7.945313-7.945313 7.945313zm0 0"/><path d="m353.710938 268.792969h-73.449219c-4.386719 0-7.945313-3.554688-7.945313-7.945313 0-4.386718 3.558594-7.945312 7.945313-7.945312h73.449219c4.386718 0 7.941406 3.558594 7.941406 7.945312 0 4.386719-3.554688 7.945313-7.941406 7.945313zm0 0"/><path d="m192.132812 268.792969h-82.222656c-4.386718 0-7.941406-3.554688-7.941406-7.945313 0-4.386718 3.554688-7.945312 7.941406-7.945312h82.222656c4.386719 0 7.941407 3.558594 7.941407 7.945312 0 4.386719-3.554688 7.945313-7.941407 7.945313zm0 0"/><path d="m.0234375 268.792969h27.0703125c4.386719 0 7.945312-3.554688 7.945312-7.945313 0-4.386718-3.558593-7.945312-7.945312-7.945312h-26.679688c-.265624 4.667968-.414062 9.363281-.414062 14.097656 0 .597656.0195312 1.195312.0234375 1.792969zm0 0"/><path d="m484.953125 335.539062h-43.675781c-4.386719 0-7.945313-3.558593-7.945313-7.945312 0-4.390625 3.558594-7.945312 7.945313-7.945312h43.675781c4.386719 0 7.945313 3.554687 7.945313 7.945312 0 4.386719-3.558594 7.945312-7.945313 7.945312zm0 0"/><path d="m329.699219 335.539062h-49.433594c-4.386719 0-7.945313-3.558593-7.945313-7.945312 0-4.390625 3.558594-7.945312 7.945313-7.945312h49.433594c4.390625 0 7.945312 3.554687 7.945312 7.945312 0 4.386719-3.554687 7.945312-7.945312 7.945312zm0 0"/><path d="m116.175781 335.539062h-6.257812c-4.386719 0-7.945313-3.558593-7.945313-7.945312 0-4.390625 3.558594-7.945312 7.945313-7.945312h6.257812c4.386719 0 7.945313 3.554687 7.945313 7.945312 0 4.386719-3.558594 7.945312-7.945313 7.945312zm0 0"/><path d="m484.953125 402.28125h-43.671875c-4.386719 0-7.945312-3.554688-7.945312-7.945312 0-4.386719 3.558593-7.945313 7.945312-7.945313h43.671875c4.386719 0 7.945313 3.558594 7.945313 7.945313 0 4.390624-3.558594 7.945312-7.945313 7.945312zm0 0"/><path d="m272.84375 402.28125h-23.726562c-4.386719 0-7.941407-3.554688-7.941407-7.945312 0-4.386719 3.554688-7.945313 7.941407-7.945313h23.726562c4.386719 0 7.945312 3.558594 7.945312 7.945313 0 4.390624-3.558593 7.945312-7.945312 7.945312zm0 0"/><path d="m127.722656 402.28125h-17.804687c-4.386719 0-7.945313-3.554688-7.945313-7.945312 0-4.386719 3.558594-7.945313 7.945313-7.945313h17.804687c4.390625 0 7.945313 3.558594 7.945313 7.945313 0 4.390624-3.554688 7.945312-7.945313 7.945312zm0 0"/></g><path d="m63.894531 405.429688c-31.636719 0-44.152343-41.148438-17.867187-58.785157-9.988282-1.539062-20.925782-.835937-31.917969 2.449219 9.757813 27.4375 24.257813 52.621094 42.523437 74.5625 10.300782-5.957031 17.8125-13.835938 22.332032-21.984375-4.492188 2.394531-9.621094 3.757813-15.070313 3.757813zm0 0" fill="#f9a11b"/><path d="m189.785156 330.820312c0-14.433593 9.53125-26.644531 22.640625-30.683593-41.480469-7.246094-84.144531 25.457031-75.46875 57.832031 11.007813 41.085938 87.351563 37.585938 108.25-5.085938-19.855469 20.976563-55.421875 6.933594-55.421875-22.0625zm0 0" fill="#f3ba2e"/><path d="m461.992188 175.519531c-16.511719-13.789062-34.339844-23.972656-44.917969-29.460937-1.726563-.898438-2.808594-2.675782-2.808594-4.621094 0-7.769531-6.480469-14.023438-14.328125-13.652344-7.351562.34375-13.007812 6.675782-13.007812 14.035156v198.191407c0 4.480469-4.078126 7.828125-8.484376 6.996093-9.796874-1.855468-20.789062-1.511718-31.890624 1.460938-30.671876 8.21875-50.574219 33.386719-44.457032 56.214844 6.117188 22.832031 35.9375 34.675781 66.605469 26.457031 29.472656-7.894531 45.5625-29.875 45.5625-47.085937v-164.042969c0-1.648438 1.566406-2.847657 3.160156-2.433594 5.800781 1.507813 11.117188 3.230469 15.992188 5.125-18.519531-20.910156.890625-54.019531 28.574219-47.183594zm0 0" fill="#f23c79"/><path d="m354.652344 375.59375c0-13.109375 7.90625-24.367188 19.207031-29.277344-40.71875-4.703125-80.105469 27.226563-71.761719 58.371094 6.117188 22.828125 35.9375 34.671875 66.609375 26.453125 24.011719-6.433594 39.136719-22.214844 43.917969-37.152344-17.929688 25.355469-57.972656 12.664063-57.972656-18.394531zm0 0" fill="#ea2864"/></svg>