<svg id="Layer_1" enable-background="new 0 0 512 512" height="512" viewBox="0 0 512 512" width="512" xmlns="http://www.w3.org/2000/svg"><g><path d="m256 489.422c82.711 0 173.813-49.768 173.813-49.768 43.997-44.29 71.186-105.294 71.186-172.652 0-135.309-109.689-244.998-244.998-244.998s-244.998 109.689-244.998 244.998c0 67.358 27.188 128.361 71.182 172.65.003.002 91.104 49.77 173.815 49.77z" fill="#5c45bf"/><g><path d="m392.828 400.058h-273.657c-4.062 0-7.354-3.292-7.354-7.354s3.292-7.354 7.354-7.354h273.657c4.062 0 7.354 3.292 7.354 7.354s-3.292 7.354-7.354 7.354z" fill="#ffb332"/></g><path d="m333.16 197.952c-.773-4.401-1.189-8.783-1.189-13.237 0-4.438.445-8.867 1.259-13.236h-154.46c.814 4.369 1.259 8.798 1.259 13.236 0 4.454-.415 8.836-1.189 13.237z" fill="#ffb332"/><path d="m333.23 171.478h-1.259v.149c.015 7.196-5.689 13.088-12.886 13.088h-126.17c-7.197 0-12.901-5.892-12.886-13.088 0-.05 0-.099 0-.149h-1.259c.814 4.369 1.259 8.799 1.259 13.236 0 4.454-.415 8.835-1.189 13.237h154.32c-.773-4.401-1.189-8.783-1.189-13.237 0-4.437.445-8.866 1.259-13.236z" fill="#ff9100"/><g><path d="m205.571 462.993c-4.062 0-7.354-3.292-7.354-7.354v-325.603c0-4.062 3.292-7.354 7.354-7.354s7.354 3.292 7.354 7.354v325.604c-.001 4.061-3.292 7.353-7.354 7.353z" fill="#e9efff"/></g><g><path d="m230.786 458.091c-4.062 0-7.354-3.292-7.354-7.354v-332.469c0-4.062 3.292-7.354 7.354-7.354s7.354 3.292 7.354 7.354v332.469c-.001 4.062-3.293 7.354-7.354 7.354z" fill="#e9efff"/></g><g><path d="m256 456.13c-4.062 0-7.354-3.292-7.354-7.354v-342.269c0-4.062 3.292-7.354 7.354-7.354s7.354 3.292 7.354 7.354v342.269c0 4.062-3.292 7.354-7.354 7.354z" fill="#e9efff"/></g><g><path d="m281.214 458.091c-4.062 0-7.354-3.292-7.354-7.354v-332.469c0-4.062 3.292-7.354 7.354-7.354s7.354 3.292 7.354 7.354v332.469c0 4.062-3.292 7.354-7.354 7.354z" fill="#e9efff"/></g><g><path d="m306.429 462.993c-4.062 0-7.354-3.292-7.354-7.354v-325.603c0-4.062 3.292-7.354 7.354-7.354s7.354 3.292 7.354 7.354v325.604c-.001 4.061-3.293 7.353-7.354 7.353z" fill="#e9efff"/></g><path d="m205.571 406.608c-4.062 0-7.353-3.292-7.353-7.354v56.385c0 4.062 3.292 7.354 7.353 7.354 4.062 0 7.354-3.292 7.354-7.354v-56.385c-.001 4.062-3.292 7.354-7.354 7.354z" fill="#abbaef"/><path d="m230.786 401.706c-4.062 0-7.354-3.292-7.354-7.354v56.385c0 4.062 3.292 7.353 7.354 7.353 4.061 0 7.354-3.292 7.354-7.353v-56.385c-.001 4.062-3.293 7.354-7.354 7.354z" fill="#abbaef"/><path d="m256 399.745c-4.062 0-7.354-3.292-7.354-7.354v56.385c0 4.061 3.292 7.353 7.354 7.353s7.353-3.292 7.353-7.353v-56.385c.001 4.062-3.291 7.354-7.353 7.354z" fill="#abbaef"/><path d="m281.214 401.706c-4.062 0-7.354-3.292-7.354-7.354v56.385c0 4.062 3.292 7.353 7.354 7.353s7.353-3.292 7.353-7.353v-56.385c0 4.062-3.291 7.354-7.353 7.354z" fill="#abbaef"/><path d="m306.429 406.608c-4.062 0-7.353-3.292-7.353-7.354v56.385c0 4.062 3.292 7.354 7.353 7.354 4.062 0 7.354-3.292 7.354-7.354v-56.385c-.001 4.062-3.292 7.354-7.354 7.354z" fill="#abbaef"/><g><path d="m256 472.519c29.287 0 52.65-4.04 71.258-10.781-17.738-8.772-43.096-14.264-71.258-14.264s-53.52 5.493-71.258 14.264c18.608 6.742 41.971 10.781 71.258 10.781z" fill="#ffb332"/></g><path d="m262.034 447.566c-1.997-.056-4.006-.093-6.034-.093-28.163 0-53.52 5.493-71.258 14.265 18.608 6.741 41.971 10.781 71.258 10.781 2.078 0 4.119-.026 6.138-.066-10.637-4.258-10.767-20.652-.104-24.887z" fill="#ff9100"/><g><path d="m188.577 102.78c-4.062 0-7.354-3.292-7.354-7.354v-43.186c0-2.698 1.477-5.18 3.85-6.465 2.371-1.286 5.258-1.169 7.518.304l17.521 11.419c3.403 2.218 4.363 6.773 2.146 10.175-2.219 3.403-6.774 4.363-10.175 2.146l-6.153-4.01v29.616c0 4.063-3.292 7.355-7.353 7.355z" fill="#ffcb37"/></g><ellipse cx="177.749" cy="95.426" fill="#ffcb37" rx="18.181" ry="18.181" transform="matrix(.923 -.385 .385 .923 -23.034 75.749)"/><ellipse cx="181.223" cy="93.308" fill="#ffdd40" rx="8.032" ry="8.032" transform="matrix(.987 -.161 .161 .987 -12.632 30.313)"/><g><path d="m245.171 49.421c-4.062 0-7.354-3.292-7.354-7.354v-34.714c0-2.698 1.477-5.18 3.85-6.465 2.37-1.286 5.258-1.169 7.518.304l14.084 9.179c3.403 2.218 4.363 6.773 2.146 10.175-2.219 3.402-6.774 4.363-10.175 2.146l-2.715-1.769v21.144c-.001 4.062-3.293 7.354-7.354 7.354z" fill="#ffcb37"/></g><ellipse cx="237.188" cy="42.068" fill="#ffcb37" rx="15.336" ry="15.336" transform="matrix(.997 -.083 .083 .997 -2.666 19.757)"/><g><path d="m238.966 47.053c-4.003 0-7.354-3.23-7.354-7.354 0-4.67 4.302-8.131 8.785-7.206 3.327.623 5.922 3.617 5.922 7.206 0 4.061-3.324 7.354-7.353 7.354z" fill="#ffdd40"/></g><g><path d="m195.891 27.733c-5.51 0-9.805-4.507-9.805-9.805 0-6.233 5.733-10.814 11.716-9.609 4.727.958 7.894 5.067 7.894 9.609 0 5.322-4.314 9.805-9.805 9.805z" fill="#ffcb37"/></g><g><path d="m282.772 57.769c-4.003 0-7.353-3.23-7.353-7.354 0-4.67 4.302-8.131 8.785-7.206 3.327.623 5.922 3.617 5.922 7.206 0 4.061-3.325 7.354-7.354 7.354z" fill="#ffcb37"/></g><g><path d="m205.571 139.841c-5.415 0-9.805-4.39-9.805-9.805v-9.504c0-5.415 4.39-9.805 9.805-9.805s9.805 4.39 9.805 9.805v9.504c0 5.415-4.39 9.805-9.805 9.805z" fill="#ffdd40"/></g><g><path d="m230.786 128.073c-5.415 0-9.805-4.39-9.805-9.805v-11.926c0-5.415 4.39-9.805 9.805-9.805s9.805 4.39 9.805 9.805v11.926c-.001 5.415-4.391 9.805-9.805 9.805z" fill="#ffdd40"/></g><g><path d="m256 116.312c-5.415 0-9.805-4.39-9.805-9.805v-11.383c0-5.415 4.39-9.805 9.805-9.805s9.805 4.39 9.805 9.805v11.383c0 5.415-4.39 9.805-9.805 9.805z" fill="#ffdd40"/></g><g><path d="m281.214 128.073c-5.415 0-9.805-4.39-9.805-9.805v-11.926c0-5.415 4.39-9.805 9.805-9.805s9.805 4.39 9.805 9.805v11.926c0 5.415-4.39 9.805-9.805 9.805z" fill="#ffdd40"/></g><g><path d="m306.429 139.841c-5.414 0-9.805-4.39-9.805-9.805v-9.504c0-5.415 4.39-9.805 9.805-9.805s9.805 4.39 9.805 9.805v9.504c-.001 5.415-4.391 9.805-9.805 9.805z" fill="#ffdd40"/></g><g fill="#ffb332"><path d="m205.571 128.077c-5.032 0-9.173-3.793-9.735-8.674-.043.371-.07.747-.07 1.13v9.504c0 5.415 4.39 9.805 9.805 9.805s9.805-4.39 9.805-9.805v-9.504c0-.383-.027-.759-.07-1.13-.562 4.881-4.703 8.674-9.735 8.674z"/><path d="m230.786 116.308c-5.415 0-9.805-4.39-9.805-9.805v11.765c0 5.415 4.39 9.805 9.805 9.805s9.805-4.39 9.805-9.805v-11.765c-.001 5.415-4.391 9.805-9.805 9.805z"/><path d="m256 104.547c-5.35 0-9.692-4.289-9.795-9.614-.001.064-.01.126-.01.191v11.382c0 5.415 4.39 9.805 9.805 9.805s9.805-4.39 9.805-9.805v-11.382c0-.064-.008-.127-.01-.191-.103 5.326-4.444 9.614-9.795 9.614z"/><path d="m281.214 116.308c-5.415 0-9.805-4.39-9.805-9.805v11.765c0 5.415 4.39 9.805 9.805 9.805s9.805-4.39 9.805-9.805v-11.765c0 5.415-4.39 9.805-9.805 9.805z"/><path d="m306.429 128.077c-5.032 0-9.173-3.793-9.735-8.674-.043.371-.07.747-.07 1.13v9.504c0 5.415 4.39 9.805 9.805 9.805s9.805-4.39 9.805-9.805v-9.504c0-.383-.027-.759-.07-1.13-.562 4.881-4.703 8.674-9.735 8.674z"/></g><path d="m377.432 227.539c-27.245-38.392-20.054-56.688-12.658-64.467.862-.907 2.334-.758 3.065.258 6.202 8.62 16.621 14.003 28.239 13.12 16.04-1.219 28.771-14.625 29.225-30.705.507-17.936-13.882-32.634-31.704-32.634 0 0-22.811-2.531-42.363 18.707-13.118 14.25-21.226 33.529-21.226 52.897 0 31.567 20.185 59.48 49.76 116.842 14.658 28.43 21.7 60.351 13.058 91.147-10.833 38.605-44.303 78.89-136.829 78.89s-125.996-40.284-136.829-78.89c-8.641-30.797-1.6-62.717 13.058-91.147 29.575-57.362 49.76-85.275 49.76-116.842 0-19.368-8.108-38.648-21.226-52.897-19.552-21.238-42.363-18.707-42.363-18.707-17.822 0-32.21 14.699-31.704 32.634.454 16.079 13.185 29.486 29.225 30.705 11.618.883 22.037-4.5 28.239-13.12.731-1.016 2.202-1.164 3.065-.258 7.396 7.78 14.588 26.076-12.658 64.467-30.503 42.982-91.23 108.165-61.764 190.92 2.676 7.516 5.823 14.571 9.38 21.192 44.383 44.68 105.867 72.349 173.818 72.349s129.434-27.669 173.816-72.348c3.557-6.622 6.704-13.677 9.38-21.192 29.465-82.756-31.262-147.939-61.764-190.921z" fill="#ffdd40"/><path d="m108.958 135.36c-6.208 4.415-7.357 11.33-7.468 12.105-.574 4.021 2.22 7.744 6.241 8.319 4.011.567 7.745-2.219 8.319-6.241.002-.012.397-1.462 1.431-2.197 1.054-.75 2.992-.896 5.457-.415 9.866 1.924 10.482 14.624 10.515 15.641v10.167c4.242-2.294 7.908-5.517 10.709-9.409.731-1.016 2.202-1.164 3.065-.258.312.328.623.683.932 1.05v-1.74c-.008-.64-.154-6.433-2.667-12.8-3.648-9.248-10.658-15.315-19.738-17.088-8.279-1.614-13.704.668-16.796 2.866z" fill="#ffb332"/><path d="m403.041 135.36c6.208 4.415 7.357 11.33 7.467 12.105.573 4.021-2.22 7.744-6.241 8.319-4.011.567-7.745-2.219-8.319-6.241-.002-.012-.397-1.462-1.431-2.197-1.054-.75-2.992-.896-5.457-.415-9.866 1.924-10.482 14.624-10.515 15.641v10.167c-4.242-2.294-7.908-5.517-10.709-9.409-.731-1.016-2.202-1.164-3.065-.258-.312.328-.623.683-.932 1.05v-1.74c.008-.64.154-6.433 2.667-12.8 3.648-9.248 10.658-15.315 19.738-17.088 8.279-1.614 13.704.668 16.797 2.866z" fill="#ffb332"/><path d="m429.811 306.053c-12.902 27.464-41.904 13.809-41.904 13.809 8.78 23.465 11.751 48.504 4.922 72.843-10.832 38.605-44.303 78.89-136.829 78.89s-125.996-40.285-136.829-78.89c-7.007-24.973-3.701-50.685 5.616-74.675-31.258 8.774-40.149-16.813-40.149-16.813v.001c-17.498 33.554-27.633 72.871-11.834 117.243 2.676 7.516 5.823 14.571 9.38 21.192 44.382 44.678 105.865 72.347 173.816 72.347s129.434-27.669 173.815-72.348c3.557-6.622 6.704-13.677 9.38-21.192 15.046-42.258 6.571-79.93-9.384-112.407z" fill="#ffc839"/></g></svg>