<svg id="Layer_1" enable-background="new 0 0 512 512" height="512" viewBox="0 0 512 512" width="512" xmlns="http://www.w3.org/2000/svg"><g><path d="m462.613 398.713c24.298-38.037 38.385-83.228 38.385-131.711 0-135.309-109.689-244.998-244.998-244.998s-244.998 109.689-244.998 244.998c0 48.849 14.302 94.355 38.939 132.57z" fill="#2d3c6b"/><g><path d="m188.106 342.689-13.48 39.079 1.126.766c.328.23 33.335 23.095 80.543 23.095 47.621 0 80.705-23.616 81.038-23.857.123-.091.252-.169.396-.257l1.021-.631-12.765-37.005c-1.157-.872-2.186-1.914-3.015-3.125-7.869-11.489-10.047-28.953-10.484-41.648-5.706 6.646-11.693 12.204-17.415 16.647-11.147 8.656-24.903 13.358-39.071 13.358-14.167 0-27.924-4.702-39.071-13.358-5.722-4.443-11.71-10.002-17.415-16.647-.431 12.517-2.555 29.672-10.159 41.164-.296.447-.621.869-.96 1.278-.07.382-.16.763-.289 1.141z" fill="#ffb074"/></g><g><path d="m188.106 342.689-13.48 39.079 1.126.766c.288.202 25.805 17.87 64.01 22.159 12.313-20.449 17.485-55.829 19.498-75.674-1.084.055-2.17.093-3.26.093-14.167 0-27.924-4.702-39.071-13.358-5.722-4.443-11.71-10.002-17.415-16.647-.431 12.517-2.555 29.672-10.159 41.164-.296.447-.621.869-.96 1.278-.07.381-.16.762-.289 1.14z" fill="#fd995b"/></g><path d="m256.295 419.128c-52.047 0-86.946-24.576-88.406-25.622-3.367-2.412-4.141-7.098-1.729-10.465 2.411-3.365 7.093-4.141 10.456-1.734.492.347 32.78 22.821 79.679 22.821 47.246 0 79.828-23.333 80.152-23.568 3.347-2.438 8.04-1.702 10.477 1.647 2.439 3.348 1.701 8.039-1.647 10.478-1.482 1.08-36.905 26.443-88.982 26.443z" fill="#ffc839"/><path d="m240.581 403.289v-.011c-38.246-4.083-63.529-21.665-63.965-21.971-3.363-2.406-8.045-1.631-10.456 1.734-2.412 3.367-1.639 8.053 1.729 10.465 1.28.917 28.279 19.926 70.004 24.592.148-.733.113-1.321-.153-1.726-6.177-9.408 2.841-13.083 2.841-13.083z" fill="#ffb332"/><path d="m350.984 176.316c-.385-1.235-1.297-2.215-2.503-2.686l-6.274-2.452c.188.451.379.902.552 1.352 1.256 3.279 2.15 9.35 2.703 12.789 1.26-.61 2.758-1.235 4.335-1.717l.653-3.651c.725-1.074.919-2.398.534-3.635z" fill="#7f3822"/><path d="m160.214 176.316c-.385 1.236-.191 5.245.534 6.318l.649.961c1.58.483 3.079 1.112 4.341 1.723.566-3.525 1.491-9.68 2.797-13.036.143-.368.304-.737.457-1.106l-6.275 2.453c-1.205.473-2.117 1.452-2.503 2.687z" fill="#7f3822"/><path d="m306.536 266.291c0-4.921 3.118-9.326 7.759-10.961 13.24-4.665 22.136-16.853 22.136-30.328v-17.382c0-4.52 1.337-8.889 3.867-12.635l6.256-9.265c-.501-5.076-1.688-9.879-3.411-14.178l-9.803-3.832c-4.662-1.822-9.577-2.725-14.478-2.725-6.155 0-12.287 1.426-17.859 4.246l-26.776 11.927c-3.587 1.598-5.668 5.422-5.063 9.3l7.749 49.684c.296 1.898-.536 3.829-2.119 4.917l-16.347 11.234c-1.703 1.17-3.991 1.17-5.694 0l-16.346-11.234c-1.584-1.088-2.415-3.019-2.119-4.917l7.749-49.684c.604-3.878-1.477-7.702-5.063-9.3l-26.71-11.895c-10.076-5.097-21.89-5.663-32.404-1.552l-9.802 3.831c-1.721 4.29-2.911 9.094-3.413 14.178l6.257 9.265c2.53 3.746 3.867 8.115 3.867 12.635v17.382c0 13.476 8.895 25.663 22.136 30.328 4.641 1.635 7.759 6.04 7.759 10.961v51.389c9.252 9.109 18.986 15.461 27.525 19.813 14.663 7.473 31.958 7.497 46.625.033 8.582-4.367 18.397-10.752 27.723-19.932v-51.303z" fill="#f9ba8f"/><path d="m218.803 244.843c.005.013.011.026.017.039-.476-4.424-.744-9.015-.744-13.794l-4.485-32.618c-1.309-9.539.016-18.746 2.981-26.399l-6.309-2.81c-10.076-5.097-21.89-5.663-32.404-1.552l-9.802 3.831c-1.721 4.29-2.911 9.094-3.413 14.178l6.257 9.265c2.53 3.746 3.867 8.115 3.867 12.635v17.382c0 13.476 8.895 25.663 22.136 30.328 4.641 1.635 7.759 6.04 7.759 10.961v51.389c9.252 9.109 18.986 15.461 27.525 19.813 14.663 7.473 31.958 7.497 46.625.033.355-.181.718-.375 1.078-.563-22.782-11.901-53.436-37.92-61.088-92.118z" fill="#fcad6d"/><path d="m271.249 243.931-6.093-1.094c-1.385-.25-2.814.002-4.032.709l-4.83 2.801-4.829-2.801c-1.217-.707-2.646-.956-4.032-.709l-6.093 1.094c-3.231.58-5.38 3.669-4.8 6.9s3.67 5.378 6.9 4.8l3.947-.708 5.925 3.436c.006.004.013.006.019.01 1.767 1.013 3.993 1.104 5.923.001.007-.004.014-.007.021-.011l5.926-3.436 3.948.708c3.226.583 6.32-1.569 6.9-4.8s-1.569-6.321-4.8-6.9z" fill="#fd995b"/><path d="m273.428 279.737c-.037 0-3.839-.082-7.091-1.912-1.602-.901-3.53-1.011-5.224-.296l-4.03 1.7-4.03-1.7c-1.694-.715-3.622-.606-5.224.296-3.218 1.81-6.977 1.909-7.126 1.912-3.267.019-5.909 2.672-5.909 5.944 0 3.283 2.661 5.944 5.944 5.944.589 0 5.164-.069 10.152-2.105l3.883 1.638c1.49.628 3.136.628 4.62 0l3.883-1.638c4.988 2.036 9.564 2.105 10.152 2.105 3.283 0 5.944-2.661 5.944-5.944-.001-3.283-2.662-5.944-5.944-5.944z" fill="#fd995b"/><path d="m288.325 197.716c0-1.684.315-3.285.877-4.741-2.188 1.074-3.955 2.29-5.213 3.317-2.935 2.394-8.039 5.43-10.832 7.035-.529.303-.313 1.11.297 1.11h.276c2.593 0 5.172.404 7.634 1.215 4.271 1.407 8.358 2.107 12.138 2.337-3.106-2.129-5.177-5.932-5.177-10.273z" fill="#edeef2"/><path d="m323.08 200.349c-5.103-4.787-10.009-7.55-14.545-8.949 1.02 1.838 1.61 4 1.61 6.315 0 3.784-1.574 7.158-4.034 9.373 3.714-.768 6.613-1.835 8.408-2.652 3.683-1.677 6.468-2.359 8.124-2.636.69-.114.947-.973.437-1.451z" fill="#edeef2"/><path d="m288.517 193.323c-.622 1.421-.969 2.99-.969 4.641 0 4.272 2.313 8.002 5.754 10.012 4.962.324 9.401-.164 13.038-.935 2.672-2.123 4.388-5.399 4.388-9.077 0-2.41-.736-4.648-1.995-6.502-8.312-2.628-15.4-.666-20.216 1.861z" fill="#633"/><circle cx="299.018" cy="198.692" fill="#542727" r="4.442"/><path d="m332.898 183.897c-.664-4.364-3.308-14.507-13.628-16.853-10.42-2.368-32.392 2.096-41.287 4.107-2.37.536-4.248 2.338-4.884 4.683l-1.833 6.758c-.156.574.373 1.098.945.937 6.744-1.892 37.799-10.29 47.259-7.256 7.214 2.314 10.919 5.921 12.557 8.001.312.397.947.12.871-.377z" fill="#633"/><path d="m223.675 197.716c0-1.684-.315-3.285-.877-4.741 2.188 1.074 3.955 2.29 5.213 3.317 2.935 2.394 8.038 5.43 10.832 7.035.528.303.313 1.11-.297 1.11h-.276c-2.593 0-5.172.404-7.634 1.215-4.271 1.407-8.358 2.107-12.138 2.337 3.107-2.129 5.177-5.932 5.177-10.273z" fill="#edeef2"/><path d="m188.92 200.349c5.103-4.787 10.009-7.55 14.545-8.949-1.02 1.838-1.61 4-1.61 6.315 0 3.784 1.574 7.158 4.034 9.373-3.714-.768-6.613-1.835-8.408-2.652-3.683-1.677-6.468-2.359-8.124-2.636-.689-.114-.947-.973-.437-1.451z" fill="#edeef2"/><path d="m223.483 193.323c.622 1.421.969 2.99.969 4.641 0 4.272-2.313 8.002-5.754 10.012-4.963.324-9.401-.164-13.038-.935-2.672-2.123-4.388-5.399-4.388-9.077 0-2.41.736-4.648 1.995-6.502 8.312-2.628 15.4-.666 20.216 1.861z" fill="#633"/><path d="m208.54 198.692c0 2.453 1.989 4.442 4.442 4.442s4.442-1.989 4.442-4.442-1.989-4.442-4.442-4.442c-2.454 0-4.442 1.989-4.442 4.442z" fill="#542727"/><path d="m179.102 183.897c.664-4.364 3.308-14.507 13.628-16.853 10.42-2.368 32.392 2.096 41.287 4.107 2.37.536 4.248 2.338 4.884 4.683l1.833 6.758c.156.574-.373 1.098-.945.937-6.744-1.892-37.799-10.29-47.259-7.256-7.214 2.314-10.919 5.921-12.557 8.001-.311.397-.946.12-.871-.377z" fill="#633"/><g><path d="m295.309 167.85c-6.911 1.045-13.396 2.412-17.326 3.301-2.37.536-4.248 2.338-4.884 4.683l-1.833 6.758c-.155.574.373 1.098.945.937 3.739-1.049 14.951-4.096 25.814-6.088-4.467-.861-6.104-6.472-2.716-9.591z" fill="#542727"/></g><g><path d="m210.376 167.015c-6.708-.748-13.22-.977-17.646.029-10.32 2.346-12.963 12.488-13.628 16.853-.076.497.559.774.87.379 1.638-2.081 5.343-5.687 12.557-8.001 3.6-1.155 10.33-.652 17.655.516-3.81-2.211-3.688-7.726.192-9.776z" fill="#542727"/></g><path d="m371.999 366.39c-20.858 22.734-58.326 51.001-115.705 51.001v94.605c78.063-.092 147.573-36.69 192.375-93.644z" fill="#ffdd40"/><path d="m140.59 366.39-76.33 53.116c44.887 56.36 114.089 92.494 191.74 92.494.099 0 .196-.004.295-.004v-94.605c-57.379 0-94.847-28.267-115.705-51.001z" fill="#ffc839"/><path d="m318.192 504.026c-39.024-19.368-72.53-40.366-97.93-57.723-36.176-24.72-62.295-47.329-76.206-60.182l-33.344 17.513c9.873 9.722 40.527 38.617 88.712 71.624 16.421 11.248 36.055 23.906 58.281 36.72 20.887-.142 41.153-2.893 60.487-7.952z" fill="#a05838"/><path d="m268.917 490.614c4.333-7.333 11.789-6.53 11.789-6.53l.002-.008c-23.201-13.167-43.613-26.27-60.446-37.773-36.176-24.72-62.295-47.329-76.206-60.182l-32.779 17.217-.379.478c10.058 9.888 40.624 38.629 88.527 71.442 16.421 11.248 36.055 23.906 58.281 36.72.017 0 .033-.001.05-.001.207-4.227 2.671-7.364 2.671-7.364s4.156-6.666 8.49-13.999z" fill="#934a2e"/><g><path d="m220.622 508.373c-2.666-.306-5.297-1.207-7.687-2.75-7.583-4.892-15.391-10.095-22.582-15.044-8.093-5.575-10.248-16.764-4.809-24.946l19.569-29.146c2.678-4.034 6.811-6.79 11.61-7.72 4.799-.933 9.666.079 13.699 2.847 6.942 4.764 14.433 9.741 21.666 14.391 4.122 2.65 6.945 6.75 7.949 11.542 1.002 4.784.064 9.66-2.641 13.73l-19.592 29.179c-3.859 5.809-10.622 8.669-17.182 7.917zm1.527-18.38-.004.006zm-20.534-14.519c6.683 4.591 13.892 9.393 20.924 13.939l18.769-27.954c-6.997-4.508-14.211-9.299-20.945-13.911zm40.289-13.632.012.001zm-.002-.002.001.001zm-21.132-14.896-.003.004c0-.001.002-.003.003-.004z" fill="#e9efff"/></g><path d="m190.352 490.579c7.191 4.949 14.999 10.152 22.582 15.044 2.391 1.542 5.022 2.444 7.688 2.75 6.56.752 13.323-2.107 17.181-7.917l19.592-29.179c-15.886 5.42-16.086-9.818-16.086-9.818l-18.77 27.954c-7.032-4.545-14.241-9.347-20.924-13.939l18.749-27.926c-15.24 3.344-15.252-11.061-15.252-11.061l-19.569 29.146c-5.439 8.182-3.283 19.371 4.809 24.946z" fill="#bec8f7"/><path d="m463.863 396.711c-1.18-.872-2.352-1.681-3.501-2.401-2.37-1.486-3.913-4.003-4.239-6.782-1.031-8.795-6.217-27.76-31.512-33.423-2.242-.502-4.193-1.853-5.53-3.722-4.86-6.795-18.987-22.202-44.12-16.368-2.386.554-4.906.18-6.995-1.099-5.849-3.58-19.725-9.584-38.514-1.541-4.584 1.962-6.923 7.089-5.296 11.803l21.87 63.401 29.992 13.935 64.985 7.103c8.399-9.665 16.041-20.002 22.86-30.906z" fill="#ff4155"/><path d="m374.963 334.015c-2.386.554-4.906.18-6.995-1.099-5.849-3.58-19.725-9.584-38.514-1.541-4.585 1.962-6.923 7.089-5.296 11.803l21.869 63.401 21.874 10.163 14.35-30.62s-3.964-24.388 6.439-34.79c10.402-10.402 30.394-.948 30.394-.948-4.862-6.795-18.989-22.202-44.121-16.369z" fill="#e80054"/><circle cx="368.753" cy="400.406" fill="#bec8f7" r="27.33"/><ellipse cx="371.999" cy="394.957" fill="#e9efff" rx="11.693" ry="11.693" transform="matrix(1 -.015 .015 1 -5.744 5.49)"/><path d="m184.227 331.375c-18.788-8.043-32.665-2.039-38.514 1.541-2.089 1.279-4.609 1.653-6.995 1.099-25.132-5.833-39.259 9.573-44.12 16.368-1.336 1.868-3.288 3.22-5.53 3.722-25.294 5.663-30.48 24.627-31.512 33.423-.326 2.778-1.868 5.296-4.239 6.782-1.518.952-3.077 2.053-4.642 3.265 6.722 10.651 14.234 20.751 22.468 30.21l66.517-7.271 29.992-13.935 21.869-63.401c1.628-4.714-.71-9.841-5.294-11.803z" fill="#ff4155"/><path d="m71.144 427.785 66.517-7.271.179-.083v-46.422s-12.59-3.561-20.243-18.061c-7.543-14.292 10.606-22.959 11.127-23.204-18.939-.366-29.953 11.806-34.126 17.641-1.336 1.868-3.288 3.22-5.53 3.722-25.294 5.663-30.48 24.627-31.512 33.423-.326 2.778-1.868 5.296-4.239 6.782-1.518.952-3.077 2.053-4.642 3.265 6.723 10.648 14.236 20.749 22.469 30.208z" fill="#e80054"/><circle cx="144.927" cy="400.406" fill="#bec8f7" r="27.33"/><path d="m255.207 25.7c-61.352.212-110.616 50.86-110.616 112.212v94.67c0 40.954 22.181 76.721 55.181 95.961 2.832 1.651 6.39-.43 6.39-3.708v-58.544c0-5.576-3.521-10.53-8.761-12.376-12.46-4.389-21.134-15.702-21.134-28.913v-17.382c0-4.803-1.436-9.495-4.124-13.475l-10.153-15.035c-.982-1.454-.362-3.444 1.272-4.083l15.142-5.919c10.133-3.961 21.473-3.418 31.181 1.493l26.776 11.927c2.975 1.325 4.693 4.48 4.191 7.699l-7.75 49.684c-.387 2.481.683 4.963 2.752 6.385l16.346 11.234c2.227 1.53 5.167 1.53 7.393 0l16.346-11.234c2.069-1.422 3.139-3.904 2.752-6.385l-7.749-49.684c-.502-3.218 1.215-6.373 4.191-7.699l26.776-11.927c9.708-4.911 21.048-5.454 31.181-1.493l15.142 5.919c1.634.639 2.255 2.629 1.272 4.083l-10.153 15.035c-2.688 3.98-4.124 8.673-4.124 13.475v17.382c0 13.21-8.674 24.523-21.134 28.913-5.24 1.846-8.761 6.801-8.761 12.376v58.544c0 3.278 3.558 5.359 6.39 3.708 33.001-19.239 55.182-55.007 55.182-95.961v-95.875c.004-61.439-49.909-111.22-111.397-111.007z" fill="#ffc839"/><path d="m291.083 64.947c4.764-13.697 17.33-18.527 26.716-20.194-17.844-12.094-39.393-19.133-62.592-19.053-61.352.212-110.616 50.86-110.616 112.212v94.67c0 40.954 22.181 76.721 55.182 95.961 2.832 1.651 6.39-.43 6.39-3.708v-58.544c0-5.576-3.521-10.53-8.761-12.376-12.46-4.389-21.134-15.702-21.134-28.913v-17.382c0-4.803-1.436-9.495-4.124-13.475l-10.153-15.035c-.982-1.454-.362-3.444 1.273-4.083l15.142-5.919c10.133-3.961 21.473-3.418 31.181 1.493l26.776 11.927c2.975 1.325 4.693 4.48 4.191 7.699l-7.749 49.684c-.387 2.481.683 4.963 2.752 6.385l16.346 11.234c2.227 1.53 5.167 1.53 7.393 0l16.346-11.234c2.069-1.422 3.139-3.904 2.752-6.385l-7.749-49.684c-.502-3.218 1.216-6.373 4.191-7.699l17.6-7.839 1.478-.658c-16.503-4.083-14.023-16.75-14.023-16.75s1.859-12.167 4.741-23 16.277-10.001 16.277-10.001c-24.507-13.001-17.826-36.332-17.826-36.332s0-.001 8-23.001z" fill="#ffb332"/><path d="m201.273 152.281h-56.682v80.302c.003-.005 11.198-19.523 31.677-7.58v-17.382c0-4.803-1.436-9.495-4.124-13.475l-10.153-15.035c-.982-1.454-.362-3.444 1.273-4.083l15.142-5.919c7.349-2.873 15.331-3.364 22.867-1.55z" fill="#ffa219"/><path d="m310.728 152.281v15.089c7.298-1.591 14.977-1.033 22.066 1.739l15.142 5.919c1.634.639 2.254 2.629 1.272 4.083l-10.153 15.035c-2.688 3.98-4.124 8.673-4.124 13.475v17.382s18.535-13.452 31.677 7.58v-80.302z" fill="#ffb332"/><path d="m370.468 143.419-69.559-19.139c-29.655-8.16-60.964-8.16-90.619 0l-69.559 19.139c-4.349 1.197-7.362 5.151-7.362 9.662v7.956c0 4.12 2.522 7.82 6.357 9.327l22.266 8.747c-.982-1.454-.362-3.444 1.272-4.083l15.142-5.919c10.133-3.961 21.473-3.418 31.181 1.493l26.776 11.927c2.975 1.325 4.693 4.48 4.191 7.699l-7.75 49.684c-.387 2.481.683 4.963 2.752 6.385l16.346 11.234c2.227 1.53 5.167 1.53 7.393 0l16.346-11.234c2.069-1.422 3.139-3.904 2.752-6.385l-7.749-49.684c-.502-3.218 1.215-6.373 4.191-7.699l26.776-11.927c9.708-4.911 21.048-5.454 31.181-1.493l15.142 5.919c1.634.639 2.255 2.629 1.272 4.083l22.266-8.747c3.835-1.507 6.357-5.207 6.357-9.327v-7.956c.001-4.511-3.012-8.465-7.361-9.662z" fill="#ffdd40"/><path d="m210.29 124.28-69.559 19.139c-4.349 1.197-7.362 5.151-7.362 9.662v7.956c0 4.12 2.522 7.82 6.357 9.327l22.266 8.747c-.982-1.454-.362-3.444 1.273-4.083l15.142-5.919c10.133-3.961 21.473-3.418 31.181 1.493l26.776 11.927c2.975 1.325 4.693 4.48 4.191 7.699l-7.749 49.684c-.387 2.481.683 4.963 2.752 6.385l16.346 11.234c2.227 1.53 5.167 1.53 7.393 0l16.346-11.234c2.069-1.422 3.139-3.904 2.752-6.385l-7.749-49.684c-.502-3.218 1.216-6.373 4.191-7.699l19.078-8.498c-16.503-4.083-14.023-16.75-14.023-16.75s1.859-12.167 4.741-23 16.277-10.001 16.277-10.001c-29.656-8.16-60.965-8.16-90.62 0z" fill="#ffc839"/><path d="m278.326 0h-19.816-5.821-19.817c-5.79 0-10.08 5.38-8.79 11.024l21.048 83.001c.805 3.526 3.942 6.027 7.559 6.027h5.821c3.617 0 6.754-2.501 7.559-6.027l21.048-83.001c1.289-5.644-3-11.024-8.791-11.024z" fill="#ff4155"/><path d="m388.688 61.021c12.393 22.4 29.677 64.189 19.235 109.977-1.154 5.063-1.711 10.24-1.558 15.431.385 13.073.644 39.773-2.355 64.949-2.752 23.104 9.229 45.434 29.772 56.359 17.908 9.523 38.204 23.696 52.314 43.595 9.639-26.292 14.901-54.696 14.901-84.329.001-86.41-44.737-162.364-112.309-205.982z" fill="#3c5082"/><path d="m123.312 61.021c-12.393 22.4-29.677 64.189-19.235 109.977 1.154 5.063 1.711 10.24 1.558 15.431-.385 13.073-.644 39.773 2.355 64.949 2.752 23.104-9.229 45.434-29.772 56.359-17.908 9.523-38.204 23.696-52.315 43.595-9.639-26.292-14.901-54.696-14.901-84.329 0-86.41 44.738-162.364 112.31-205.982z" fill="#3c5082"/><circle cx="147.96" cy="394.957" fill="#e9efff" r="11.693"/><path d="m252.689 0h-19.817c-5.79 0-10.08 5.38-8.79 11.024l21.048 83.001c.805 3.526 3.942 6.027 7.559 6.027h5.821c1.507 0 2.927-.439 4.133-1.2-6.474-3.279-6.643-12.155-6.643-12.155s0-45.5 0-64.693 22.326-22.004 22.326-22.004h-19.816z" fill="#e80054"/></g></svg>